<svg xmlns="http://www.w3.org/2000/svg" width="345" height="102" viewBox="0 0 345 102" fill="none">
  <path fill-rule="evenodd" clip-rule="evenodd" d="M0 25.9297C0.97887 12.0597 12.0597 0.978871 25.9297 0V1.00262C12.6123 1.97772 1.97772 12.6123 1.00262 25.9297H0ZM25.9297 101.859V100.857C12.6123 99.8816 1.97772 89.2471 1.00262 75.9297H0C0.978871 89.7996 12.0597 100.88 25.9297 101.859ZM318.93 101.859V100.857C332.247 99.8816 342.882 89.2471 343.857 75.9297H344.859C343.88 89.7996 332.8 100.88 318.93 101.859ZM318.93 2.13327e-06C332.8 0.978886 343.88 12.0597 344.859 25.9297H343.857C342.882 12.6123 332.247 1.97774 318.93 1.00263V2.13327e-06Z" fill="black"/>
</svg>