<svg xmlns="http://www.w3.org/2000/svg" width="48" height="48" viewBox="0 0 48 48" fill="none">
  <g filter="url(#filter0_d_128_207)">
    <path d="M23.0433 4H22.9567C12.4872 4 4 12.4872 4 22.9567V23.0433C4 33.5128 12.4872 42 22.9567 42H23.0433C33.5128 42 42 33.5128 42 23.0433V22.9567C42 12.4872 33.5128 4 23.0433 4Z" fill="#FAFAFA"/>
  </g>
  <path d="M28.8133 12.5498H17.9785C14.9852 12.5498 12.55 14.9813 12.55 17.9702V27.8679C12.55 30.8568 14.9852 33.2883 17.9785 33.2883H28.8133C31.8066 33.2883 34.2418 30.8568 34.2418 27.8679V17.9702C34.2418 14.9813 31.8066 12.5498 28.8133 12.5498ZM14.465 17.9702C14.465 16.036 16.0414 14.462 17.9785 14.462H28.8133C30.7504 14.462 32.3268 16.036 32.3268 17.9702V27.8679C32.3268 29.8021 30.7504 31.3762 28.8133 31.3762H17.9785C16.0414 31.3762 14.465 29.8021 14.465 27.8679V17.9702Z" fill="#1A1A1A"/>
  <path d="M23.3958 27.9825C26.1794 27.9825 28.4452 25.7179 28.4452 22.9332C28.4452 20.1484 26.1806 17.8838 23.3958 17.8838C20.6111 17.8838 18.3464 20.1484 18.3464 22.9332C18.3464 25.7179 20.6111 27.9825 23.3958 27.9825ZM23.3958 19.8C25.1243 19.8 26.5302 21.2059 26.5302 22.9344C26.5302 24.6629 25.1243 26.0688 23.3958 26.0688C21.6673 26.0688 20.2614 24.6629 20.2614 22.9344C20.2614 21.2059 21.6673 19.8 23.3958 19.8Z" fill="#1A1A1A"/>
  <path d="M28.9126 18.6995C29.6622 18.6995 30.2731 18.0898 30.2731 17.339C30.2731 16.5882 29.6634 15.9785 28.9126 15.9785C28.1618 15.9785 27.5521 16.5882 27.5521 17.339C27.5521 18.0898 28.1618 18.6995 28.9126 18.6995Z" fill="#1A1A1A"/>
  <defs>
    <filter id="filter0_d_128_207" x="0.2" y="0.2" width="47.6" height="47.6" filterUnits="userSpaceOnUse" color-interpolation-filters="sRGB">
      <feFlood flood-opacity="0" result="BackgroundImageFix"/>
      <feColorMatrix in="SourceAlpha" type="matrix" values="0 0 0 0 0 0 0 0 0 0 0 0 0 0 0 0 0 0 127 0" result="hardAlpha"/>
      <feOffset dx="1" dy="1"/>
      <feGaussianBlur stdDeviation="2.4"/>
      <feComposite in2="hardAlpha" operator="out"/>
      <feColorMatrix type="matrix" values="0 0 0 0 0.101961 0 0 0 0 0.101961 0 0 0 0 0.101961 0 0 0 0.12 0"/>
      <feBlend mode="normal" in2="BackgroundImageFix" result="effect1_dropShadow_128_207"/>
      <feBlend mode="normal" in="SourceGraphic" in2="effect1_dropShadow_128_207" result="shape"/>
    </filter>
  </defs>
</svg>