<svg xmlns="http://www.w3.org/2000/svg" width="143" height="113" viewBox="0 0 143 113" fill="none">
  <path d="M12.5319 65.0384C12.5005 65.0384 11.5826 66.1185 11.5826 66.1185C11.5826 66.1185 9.42245 63.927 7.98411 63.927C6.64253 63.927 5.7586 64.9077 5.43171 65.3026L5.56246 66.1211L6.02012 66.6781L8.11487 67.9883L8.86804 68.7729L9.9481 69.4921L10.4058 70.0805L11.1249 70.899L11.7133 72.5361L12.2364 73.8777C12.3985 74.3014 12.4665 74.6962 12.4665 75.1199C12.4665 77.8031 9.35707 80.1907 6.83867 80.1907C5.23557 80.1907 3.69785 79.7984 3.69785 79.7984L2.16013 79.3722L1.6031 78.8805C1.24221 78.6504 0 77.8344 0 76.7544C0 75.282 0.653793 74.6596 1.47234 74.6596C2.06075 74.6596 2.58379 76.1974 6.18488 76.1974C7.56045 76.1974 8.6379 75.3788 8.6379 74.1366C8.6379 73.8411 8.50714 73.5482 8.44176 73.3834L7.88473 72.9258L7.13156 71.8457L6.15088 71.3881C4.35164 70.4701 1.79924 68.0171 1.79924 65.6295C1.79924 63.3726 3.53309 61.9316 3.53309 61.9316L4.97405 61.2438L5.7586 60.8202C5.7586 60.8202 6.77329 60.624 7.45846 60.624C11.0569 60.624 13.4132 62.1304 13.4132 64.0917C13.4158 64.2853 12.8274 64.7769 12.5319 65.0384Z" fill="#1A1A1A"/>
  <path d="M30.268 80.3041C30.1058 80.3695 29.9411 80.4035 29.7449 80.4035C29.2533 80.4035 28.7302 80.2074 28.7302 80.2074L27.6162 79.4542L25.2939 79.9458C24.2478 80.1106 23.2332 80.2074 22.4146 80.2074C20.9763 80.2074 20.2231 79.1613 19.3392 78.0812C18.586 77.1659 18.0316 76.0519 18.0316 75.4634C18.0316 72.4194 20.3225 69.8356 20.3225 69.8356L21.2718 68.5934L21.8942 68.2979C21.8942 68.2979 22.9089 67.6755 23.9236 67.6755C24.4466 67.6755 25.1658 68.2979 25.592 68.2979C25.6574 68.2979 25.7228 68.2979 25.7882 68.2325L26.5073 67.5447C26.5073 67.5447 27.0958 67.2832 27.488 67.2832C28.2412 67.2832 29.5488 69.1818 29.7449 70.8163L29.9097 72.0611L30.5975 74.9744L30.6288 76.2506C30.6288 76.282 31.0551 77.3647 31.0551 77.3647C31.0551 77.3647 30.7596 80.108 30.268 80.3041ZM26.6041 73.6616L25.9503 72.6469L25.6234 71.8284C25.4613 71.4361 25.1004 71.3367 24.6427 71.3367C24.3812 71.3367 24.0857 71.3707 23.7928 71.3707C22.4826 71.3707 21.0129 72.843 21.0129 74.3154C21.0129 74.6109 21.5045 75.6256 21.5045 75.6256L22.2237 76.1486L22.5506 76.6717C22.7467 76.9672 23.4659 76.9986 23.6647 76.9986C25.5633 76.9986 26.8055 75.9525 26.8055 74.4148C26.8002 74.0879 26.6041 73.6616 26.6041 73.6616Z" fill="#1A1A1A"/>
  <path d="M45.4333 77.1497C45.4333 77.1497 44.4683 78.3135 43.8668 78.5698C43.3595 78.7921 42.6743 78.8679 42.337 78.9097L39.6721 80.2252L39.6669 80.2304L38.5685 80.3167L38.5345 80.3219L38.0795 80.3324C38.0795 80.3324 37.3969 78.9934 37.3969 78.3396C37.3969 78.1173 37.4257 77.8794 37.4727 77.6571C37.5381 77.3119 37.6296 76.9981 37.6898 76.7993L37.525 73.8259L37.8859 72.7458L37.9147 72.0266L37.7499 70.4889L37.7839 68.4909L37.9827 67.3115L37.7839 66.9558L35.3649 66.7283C34.7111 66.6943 34.2482 66.2026 34.2482 65.4181C34.2482 64.9578 34.9674 63.156 34.9674 63.156C34.9674 63.156 36.2776 63.5195 36.7666 63.5195C37.2923 63.4855 38.1108 63.4855 38.1108 62.9651V62.9311L37.9827 61.3594L38.1762 60.512L38.2416 59.921L38.4743 59.2672C38.4743 59.2018 38.4403 59.1025 38.4403 58.9691C38.4403 58.2499 38.7385 56.877 40.4671 56.877C41.385 56.877 41.9107 57.4026 41.9107 58.3493C41.9107 58.4774 41.5838 59.7563 41.5472 59.9498L41.6099 61.294L41.5106 62.374C41.5106 62.6382 41.5812 62.8945 41.9081 62.8945L43.281 63.0278C44.0002 63.0932 45.1456 64.0739 45.1456 64.9918C45.1456 65.3187 44.654 65.6822 44.3637 65.9725C44.0368 66.3282 43.7099 66.7911 43.2183 66.7911H43.1189L42.5645 66.7257L41.6832 66.8904L41.0581 66.9192L41.0241 69.6024L40.6319 71.2395L40.794 73.3368L40.6946 74.8745L40.8123 76.1194L41.2281 75.8971L42.1748 75.7036L42.724 75.4002L43.6524 75.4996L44.9155 75.7794L45.0149 76.2632L45.4333 77.1497Z" fill="#1A1A1A"/>
  <path d="M61.4852 72.2201L61.093 73.3655L59.652 75.7532L59.3565 76.6031L58.5379 78.044L58.3758 78.928L57.5259 80.6958L57.2643 81.449C56.8721 82.8899 55.4965 84.7859 55.3004 85.0815L54.9081 86.4884L54.0242 87.7306C53.5325 88.319 53.3364 89.1062 53.0408 90.0215C52.9415 90.4792 51.9948 91.1983 51.0455 91.2323H50.784C49.9994 91.2323 49.343 90.8061 49.343 89.7286C49.343 89.4331 49.9654 87.9294 50.4544 86.8493L51.0115 85.6385L51.5345 84.8853L52.68 82.5631L53.3337 81.9093L53.9222 80.5677C54.3458 79.7178 54.5446 79.0953 54.5446 78.4729C54.5446 77.4269 53.3337 75.9205 51.83 74.8405C51.5031 74.6103 51.1422 74.3174 50.9801 74.2181L50.1955 73.8258L49.5731 72.9419C49.5731 72.9419 49.0815 72.1233 49.0815 71.6003C49.0815 69.767 49.8007 69.5395 50.4231 69.5395C50.6532 69.5395 50.8467 69.5709 51.0115 69.5709C51.3724 69.5709 52.9755 71.0772 54.0869 72.1887C55.0362 72.9759 55.2637 74.3802 56.4432 74.3802C56.5086 74.3802 56.6079 74.3488 56.6733 74.3488L57.165 73.8572L57.5886 73.4649L57.6226 73.0726L59.1943 69.6049C59.7828 68.3941 60.6013 67.8057 61.3205 67.8057C62.105 67.8057 62.7274 68.5248 62.7274 69.9658C62.7274 70.4548 61.6814 71.9272 61.4852 72.2201Z" fill="#1A1A1A"/>
  <path d="M76.2426 69.2103C74.7049 69.375 73.1331 69.9948 72.971 70.9441L72.8402 71.7287L72.1525 73.3004C72.1525 73.3004 72.0871 73.5959 72.0871 74.3151C72.0871 75.8868 72.6415 77.1944 72.6415 77.7828C72.6415 78.7321 71.8883 80.4006 70.7115 80.4006C70.1545 80.4006 69.6001 79.7128 69.3385 79.093L69.043 78.3058L68.6821 77.5213L68.7135 75.6566L68.5828 75.0028L68.6141 73.8914L68.5148 73.0075L68.7763 71.5351L68.6115 69.375L68.2506 67.5758L68.1199 65.5464V65.4156C68.1199 64.5971 68.7423 63.8779 69.8223 63.8779C70.4448 63.8779 71.4254 64.6311 71.4254 65.2195L71.3914 65.515L71.5876 66.1034V66.5297L71.687 66.8906C71.7523 67.1521 71.8831 67.4136 72.1446 67.4136C73.5202 67.4136 74.2707 65.4496 76.0072 65.4496C77.6443 65.4496 78.8865 66.2682 78.8865 67.1181C78.8917 67.9341 77.5188 69.0795 76.2426 69.2103Z" fill="#1A1A1A"/>
  <path d="M85.6651 63.6159H85.4349C84.7471 63.6159 84.0594 63.3544 83.8318 62.9281L83.3402 62.0442L83.6017 60.768L84.4516 59.9494L85.1394 58.9688L86.2509 59.0995C87.1348 59.2643 87.7572 59.7219 87.7572 60.8674C87.7598 62.5018 86.583 63.6159 85.6651 63.6159ZM87.7284 69.7014L87.9246 73.2345L87.7284 74.053C87.7284 74.053 87.4669 75.0991 87.4669 75.7869C87.4669 76.5061 87.7284 77.8163 87.7284 77.8163L87.5663 78.6348C87.3048 79.5501 86.5202 80.4027 85.7017 80.4027C84.5876 80.4027 84.164 79.8143 84.164 78.4073C84.164 78.2112 84.3601 77.6541 84.3601 77.2279L84.2607 75.1985C84.2607 75.1985 84.0646 73.4646 84.0646 71.6968C84.0646 70.5853 84.164 69.4713 84.3915 68.8175L84.6844 68.0329L85.0113 67.0836C85.2414 66.5606 85.9606 66.0035 86.549 66.0035C87.6291 66.0035 87.7938 67.3451 87.7938 67.3451L87.9586 67.9335L87.7284 69.7014Z" fill="#1A1A1A"/>
  <path d="M103.827 71.9276L102.682 70.7168L101.701 70.1937L101.079 70.2931L100.556 70.2617L99.9988 70.5232L99.2796 70.8188C98.8873 71.245 97.5771 72.9789 97.5771 74.8435C97.5771 76.0229 98.6232 76.6427 98.9841 76.7735L103.435 76.5434H103.501C104.35 76.5434 105.399 77.5241 105.399 78.2772C105.399 78.8656 104.646 79.4227 103.404 79.9457C102.815 80.1758 102.193 80.4373 101.67 80.4373C101.312 80.4373 99.8367 80.1104 99.8367 80.1104L98.7252 80.0764C97.449 80.0451 97.0227 79.488 95.9113 78.6695L94.6011 77.5241L94.4703 76.5747L94.1094 75.1338L94.2402 74.2839L94.2742 73.4993L95.2889 70.4239C95.485 69.6707 97.8099 67.9368 97.8099 67.9368L98.89 67.2177H99.5778C99.5778 67.2177 100.331 67.0869 100.789 67.0869C103.276 67.0869 105.797 68.656 105.797 69.7047V71.2424L103.827 71.9276Z" fill="#1A1A1A"/>
  <path d="M112.102 69.9815C114.21 68.0202 116.752 67.5311 116.752 67.5311L117.761 67.1729L119.526 67.675C120.742 68.0202 121.333 68.3183 122.314 69.3722C124.077 71.263 124.427 76.3469 121.911 78.6874C121.815 78.7764 121.697 78.8417 121.603 78.9307L120.507 79.7701L119.623 79.8773L118.402 80.3428L117.552 80.1964C117.552 80.1964 113.103 80.2696 111.809 78.881C109.91 76.849 110.807 71.1845 112.102 69.9815ZM115.198 77.2909L115.724 77.4714L116.451 77.2412L117.881 77.3851L118.948 76.6581L120.028 76.2344C120.028 76.2344 122.115 73.5303 120.065 71.3257C118.927 70.1045 115.975 71.1113 114.827 72.1809C114.061 72.8948 113.025 75.2877 114.029 76.3652C114.074 76.4122 114.165 76.4619 114.21 76.509L115.198 77.2909Z" fill="#1A1A1A"/>
  <path d="M142.898 74.6099L142.799 76.0508C142.799 76.4771 142.961 77.8841 142.961 77.8841L142.111 78.6032L141.522 79.257C141.522 79.257 139.2 78.9301 139.2 77.8501V77.8161L139.266 76.9321L139.101 75.9828L139.297 74.3144V71.8273C139.297 71.5658 138.936 69.9941 137.628 69.9941C136.713 69.9941 135.633 70.7133 135.403 70.844L134.88 71.4324L133.8 72.1856C133.669 72.5125 133.374 73.1349 133.047 73.5272C132.785 73.9535 132.785 74.8034 132.785 75.3918C132.785 76.8982 133.177 76.7674 133.177 78.0436C133.177 78.9929 132.524 80.4966 131.247 80.4966C130.528 80.4966 129.514 79.2204 129.514 79.2204L129.644 77.6513L129.514 76.5712L129.744 74.8034L129.582 69.5338L129.843 68.3884L129.778 67.3083L130.139 66.8507L130.693 65.9014C130.693 65.9014 132.887 66.5892 132.853 67.0808L132.788 67.8994V67.9647C132.788 68.2576 133.018 68.4224 133.214 68.4224C133.245 68.4224 133.279 68.4224 133.313 68.3884C133.74 68.1923 134.132 67.6692 134.132 67.6692L134.917 67.1776C135.178 67.0128 136.357 66.3276 137.764 66.3276C139.106 66.3276 140.317 66.9814 141.593 68.5845C142.412 69.5992 142.804 70.4491 142.804 70.9068L142.77 71.4952L143 72.6407L142.898 74.6099Z" fill="#1A1A1A"/>
  <path d="M38.4953 107.341C38.4953 110.479 36.3796 111.865 34.0077 111.865C32.6399 111.865 31.2173 111.356 30.1032 110.608L30.6132 109.567C31.3977 110.187 32.7105 110.733 33.9894 110.733C35.6683 110.733 37.2557 109.912 37.2557 107.723V106.483C36.581 107.378 35.4852 107.851 34.3921 107.851C31.7822 107.851 29.8312 105.754 29.8312 103.327C29.8312 100.9 31.8005 98.7295 34.4104 98.7295C35.4146 98.7295 36.4895 99.1139 37.2557 99.8252V98.9492H38.4953V107.341ZM37.2531 101.266C36.5967 100.408 35.446 99.8619 34.4261 99.8619C32.4909 99.8619 31.1048 101.468 31.1048 103.256C31.1048 105.063 32.4726 106.721 34.4261 106.721C35.5218 106.721 36.7431 106.083 37.2531 105.043V101.266Z" fill="#1A1A1A"/>
  <path d="M47.7451 106.813C46.8874 107.744 45.8465 108.071 44.8266 108.071C43.1843 108.071 41.7433 107.103 41.7433 105.424C41.7433 103.235 43.7858 102.378 45.6844 102.378C46.2859 102.378 46.9057 102.451 47.7085 102.652V102.161C47.7085 100.683 46.9789 99.8619 45.4281 99.8619C44.3873 99.8619 43.2209 100.244 42.5279 100.628L42.1094 99.514C42.9306 99.1322 44.3166 98.7295 45.4856 98.7295C48.1322 98.7295 48.9533 100.116 48.9533 102.414V107.851H47.8393L47.7451 106.813ZM45.6268 103.4C44.4056 103.4 42.9803 103.892 42.9803 105.28C42.9803 106.358 43.8198 107.051 44.8606 107.051C45.8831 107.051 46.8664 106.523 47.7059 105.72V103.659C46.9423 103.473 46.2676 103.4 45.6268 103.4Z" fill="#1A1A1A"/>
  <path d="M57.029 100.427C56.5373 100.045 55.8783 99.7889 55.2219 99.7889C54.5289 99.7889 53.6528 100.173 53.6528 101.01C53.6528 102.069 54.8035 102.415 55.9332 102.891C57.029 103.346 58.1038 103.968 58.1038 105.555C58.1038 107.124 56.4615 108.074 54.9656 108.074C53.9614 108.074 52.9415 107.674 52.2118 106.871L52.9598 106.086C53.488 106.651 54.1627 107.017 55.0022 107.017C55.86 107.017 56.8642 106.562 56.8642 105.54C56.8642 104.517 55.9149 104.154 54.9133 103.751C53.7469 103.278 52.4864 102.747 52.4864 101.123C52.4864 99.5902 53.7626 98.7324 55.2585 98.7324C56.1895 98.7324 57.0107 99.0253 57.7037 99.5902L57.029 100.427Z" fill="#1A1A1A"/>
  <path d="M63.0125 100.082V104.99C63.0125 106.596 63.559 106.889 64.3802 106.889C64.7097 106.889 65.0732 106.798 65.476 106.651L65.7872 107.637C65.387 107.857 64.8928 108.019 64.3645 108.019C62.6307 108.019 61.7729 106.978 61.7729 105.137V100.084H60.515V98.9521H61.7729V96.7266H63.0125V98.9521H65.6041V100.084H63.0125V100.082Z" fill="#1A1A1A"/>
  <path d="M69.7099 100.628C70.2016 99.6422 71.0594 98.7295 72.3016 98.7295C72.5395 98.7295 72.7932 98.7478 73.0495 98.8027L72.8847 100.17C72.6101 100.042 72.3931 100.006 72.0453 100.006C71.0227 100.006 70.348 100.772 69.7099 101.904V107.851H68.4703V98.9492H69.7099V100.628Z" fill="#1A1A1A"/>
  <path d="M83.7011 103.4C83.7011 105.992 81.8574 108.071 79.2134 108.071C76.5669 108.071 74.7258 105.992 74.7258 103.4C74.7258 100.809 76.5695 98.7295 79.2134 98.7295C81.86 98.7295 83.7011 100.811 83.7011 103.4ZM79.2134 99.8619C77.2259 99.8619 76.002 101.541 76.002 103.4C76.002 105.262 77.2233 106.938 79.2134 106.938C81.201 106.938 82.4249 105.26 82.4249 103.4C82.4249 101.541 81.2036 99.8619 79.2134 99.8619Z" fill="#1A1A1A"/>
  <path d="M88.1547 100.099C88.8294 99.2051 89.9252 98.7318 91.0183 98.7318C93.6282 98.7318 95.5792 100.829 95.5792 103.366C95.5792 105.903 93.6073 108.073 91 108.073C89.9958 108.073 88.9209 107.691 88.1547 106.977V107.853H86.9151V94.1709H88.1547V100.099ZM88.1547 105.536C88.8111 106.394 89.9618 106.941 90.9817 106.941C92.9169 106.941 94.3029 105.335 94.3029 103.439C94.3029 101.522 92.9352 99.8641 90.9817 99.8641C89.8859 99.8641 88.6646 100.502 88.1547 101.543V105.536Z" fill="#1A1A1A"/>
  <path d="M104.154 106.813C103.297 107.744 102.258 108.071 101.236 108.071C99.5934 108.071 98.1525 107.103 98.1525 105.424C98.1525 103.235 100.195 102.378 102.094 102.378C102.695 102.378 103.315 102.451 104.118 102.652V102.161C104.118 100.683 103.388 99.8619 101.837 99.8619C100.796 99.8619 99.6301 100.244 98.937 100.628L98.5186 99.514C99.3398 99.1322 100.726 98.7295 101.895 98.7295C104.541 98.7295 105.36 100.116 105.36 102.414V107.851H104.246L104.154 106.813ZM102.036 103.4C100.815 103.4 99.3895 103.892 99.3895 105.28C99.3895 106.358 100.229 107.051 101.27 107.051C102.292 107.051 103.276 106.523 104.115 105.72V103.659C103.351 103.473 102.677 103.4 102.036 103.4Z" fill="#1A1A1A"/>
  <path d="M110.52 100.628C111.011 99.6422 111.869 98.7295 113.111 98.7295C113.349 98.7295 113.603 98.7478 113.859 98.8027L113.694 100.17C113.42 100.042 113.203 100.006 112.855 100.006C111.832 100.006 111.158 100.772 110.52 101.904V107.851H109.28V98.9492H110.52V100.628Z" fill="#1A1A1A"/>
  <path d="M84.8517 22.4786C84.8439 22.4394 84.8308 22.4002 84.8125 22.361C84.7445 22.2093 84.619 22.0785 84.5379 21.9321C84.4542 21.7856 84.3862 21.5921 84.2372 21.5032C83.9887 21.3567 83.7743 21.158 83.8397 21.0403C83.9286 20.8782 83.8763 20.7448 83.803 20.58C83.6017 20.1302 83.212 19.785 82.8119 19.513C82.6628 19.4137 82.4928 19.33 82.3647 19.2044C82.1764 19.024 82.1346 18.8096 82.0247 18.582C81.894 18.3127 81.6691 18.0172 81.4285 17.8341C81.3003 17.7373 81.2506 17.7373 81.112 17.753C80.976 17.7687 81.0597 17.8236 80.8688 17.7818C80.759 17.7556 80.6361 17.6798 80.5289 17.6432C80.079 17.4915 79.6789 17.4366 79.3023 17.1123C79.135 16.9659 79.1193 16.9214 79.1193 16.7357C79.1193 16.5553 79.1428 16.5265 78.9624 16.4167C78.829 16.3356 78.727 16.3095 78.6172 16.1839C78.4916 16.0401 78.408 15.8256 78.2144 15.755C77.932 15.653 77.6992 15.9276 77.4508 16.0218C77.3096 16.0741 77.1736 16.1002 77.0455 15.9982C76.8493 15.844 76.9408 15.6034 76.8598 15.3994C76.6898 14.9783 76.0072 14.9548 75.6359 14.9182C75.3456 14.892 75.1102 14.8293 74.8356 14.7508C74.4852 14.6488 74.3335 14.756 74.004 14.8267C73.8419 14.8606 73.7006 14.8711 73.5751 14.7404C73.4757 14.6357 73.0835 14.7273 72.8743 14.7717C72.7304 14.8031 72.55 14.6828 72.4114 14.654C72.1446 14.5991 72.1342 14.6724 71.9825 14.8685C71.857 15.028 71.1378 15.0829 71.3418 15.4151C71.4255 15.5511 71.7131 15.5484 71.8517 15.5955C72.0531 15.6635 72.2335 15.7707 72.4375 15.8335C72.6598 15.8989 72.8952 15.9878 73.1227 16.027C73.4287 16.0793 73.596 15.9172 73.8733 15.8806C73.9439 15.8727 74.072 15.8649 74.1322 15.9276C74.2394 16.0375 74.1374 16.0689 74.1688 16.1708C74.2106 16.3147 74.2263 16.3173 74.4041 16.3984C74.7258 16.5474 74.9507 16.6259 75.2828 16.503C75.6254 16.3748 75.9706 16.5422 76.2661 16.7488C76.5512 16.9502 76.5276 17.3791 76.9278 17.3581C77.1396 17.3477 77.2337 17.3398 77.3619 17.5281C77.4482 17.6563 77.4874 17.9021 77.6783 17.9204C77.8745 17.9413 77.9555 17.7661 78.1935 17.8472C78.4419 17.9309 78.7165 18.0773 78.9467 18.2081C79.1637 18.331 79.2657 18.4199 79.3233 18.6579C79.3703 18.854 79.386 19.0528 79.5665 19.1809C79.9457 19.4555 80.236 18.99 80.6047 19.1364C81.0205 19.3012 80.6962 19.6255 80.8662 19.9184C80.9551 20.0727 81.1539 20.159 81.2454 20.3316C81.3579 20.5434 81.3919 20.7918 81.5645 20.9697C81.7031 21.1135 81.8103 21.1292 81.996 21.1161C82.1163 21.1083 82.1581 21.0586 82.2575 21.1423C82.3516 21.2181 82.349 21.3646 82.4013 21.4666C82.519 21.7045 82.7701 21.8745 82.8171 22.1413C82.8642 22.3976 82.804 22.51 82.9557 22.748C82.7596 22.8788 82.519 22.7794 82.3673 23.0147C82.2261 23.2318 82.2836 23.5639 82.3621 23.7914C82.4196 23.9667 82.6079 24.2622 82.3882 24.4034C82.2183 24.5132 81.975 24.3511 81.792 24.4008C81.6168 24.4479 81.5958 24.6152 81.4599 24.7303C81.282 24.8794 81.1382 24.9055 81.0127 25.1147C80.8688 25.3553 80.6622 25.4782 80.4347 25.6378C80.1575 25.8313 79.9064 26.0483 79.6423 26.2549C79.4096 26.438 79.1428 26.5714 78.9205 26.7675C78.7139 26.9506 78.557 27.1938 78.306 27.3219C78.0523 27.4501 77.7175 27.3978 77.4822 27.5651C77.2599 27.7247 77.2311 28.0176 77.0611 28.2189C76.9095 28.3968 76.8101 28.2817 76.6166 28.2137C76.3289 28.1117 76.0935 28.1352 75.8608 28.334C75.6333 28.5301 75.4816 28.7053 75.1834 28.8021C74.9795 28.8701 74.595 29.0087 74.3832 28.9224C74.3571 28.8021 74.4381 28.6818 74.3414 28.5824C74.2472 28.4831 74.0197 28.5354 73.9073 28.572C73.7111 28.6374 73.5751 28.7577 73.3764 28.8152C73.2273 28.857 73.1933 28.9015 73.1018 29.027C72.8795 29.3278 72.7017 29.3278 72.3434 29.2911C72.1865 29.2755 72.0531 29.2755 71.9537 29.1421C71.8282 28.9747 71.8622 28.7446 71.5928 28.7341C71.3862 28.7263 71.2241 28.8989 71.0096 28.8936C70.7769 28.8858 70.6357 28.7943 70.416 28.9276C70.2748 29.0139 70.2016 29.1029 70.0237 29.1133C69.8668 29.1238 69.6654 29.0976 69.5164 29.0427C69.1999 28.925 69.145 28.5118 68.7684 28.5223C68.6011 28.5275 68.4259 28.6217 68.2925 28.7132C68.1303 28.8256 68.0702 28.9852 67.9368 29.1133C67.7093 29.095 67.487 28.8126 67.3353 28.6635C67.1444 28.4778 66.9326 28.2582 66.6711 28.1745C66.3494 28.0725 66.3154 28.3 66.0879 28.4046C65.7479 28.5615 65.8708 28.0725 65.761 27.9025C65.6355 27.7037 65.4393 27.7717 65.2537 27.6933C64.9791 27.5782 64.8588 27.3638 64.5449 27.3088C64.443 27.2905 64.2625 27.3062 64.1919 27.2042C64.1474 27.1389 64.2024 26.9846 64.1631 26.9375C64.0742 26.8355 63.9173 26.8852 63.7839 26.859C63.3158 26.7675 62.968 26.2759 62.479 26.2602C62.2253 26.2523 62.207 26.2 62.0265 26.0117C61.8592 25.8365 61.616 25.7476 61.4198 25.5985C61.2211 25.4468 61.0275 25.2873 60.8968 25.0703C60.8419 24.9761 60.766 24.8427 60.7503 24.7303C60.7346 24.6048 60.8079 24.5054 60.7948 24.3851C60.7713 24.155 60.0416 23.8934 59.9109 23.7261C60.0102 23.4776 60.1253 23.4515 59.9083 23.2004C59.7723 23.0435 59.5866 22.9363 59.4375 22.7951C59.1943 22.5623 59.1603 22.3636 59.4349 22.1387C59.6964 21.9268 59.665 21.6496 59.8167 21.375C59.9684 21.0952 60.209 21.171 60.4444 21.0246C60.6771 20.8781 60.6457 20.5382 60.8602 20.3891C61.0354 20.2688 61.276 20.3656 61.4774 20.2453C61.7415 20.0884 61.8775 19.7876 62.1181 19.6046C62.3247 19.445 62.6673 19.4189 62.798 19.1731C62.9392 18.9089 62.7483 18.582 62.9497 18.3257C63.1511 18.0668 63.5826 18.1427 63.865 18.1453C64.1919 18.1479 64.4639 18.1218 64.7672 17.9988C64.9817 17.9099 65.2092 17.821 65.3164 17.6066C65.4315 17.3791 65.4132 17.0992 65.7505 17.2352C65.9676 17.3215 66.1297 17.5334 66.352 17.3215C66.5377 17.1489 66.4906 16.8482 66.6397 16.6599C66.6266 16.8429 66.5482 17.094 66.8149 17.0339C66.9169 17.0103 67.0084 16.8796 67.1052 16.8351C67.202 16.7906 67.3406 16.7802 67.4399 16.7776C67.6282 16.7723 68.0624 16.8482 68.2114 16.6625C68.3343 16.5108 68.1905 16.367 68.2088 16.1996C68.2533 15.7655 68.6795 16.3931 68.8024 16.4716C69.281 16.7854 69.315 16.2415 69.6811 16.1029C69.8328 16.0453 70.0446 16.0035 70.1336 16.1761C70.1963 16.3016 70.3532 15.9538 70.416 15.8335C70.4709 15.7289 70.6409 15.7655 70.722 15.708C70.8004 15.6504 70.7821 15.6452 70.8344 15.5641C70.9521 15.3732 71.0672 15.1954 70.8789 15.0359C70.722 14.9051 70.4997 14.892 70.3872 14.6985C70.3349 14.6096 70.063 14.4788 70.0316 14.5494C69.9767 14.6724 69.9217 14.7168 69.8041 14.7822C69.5922 14.8999 69.3333 15.0228 69.1006 15.0882C68.7867 15.1745 68.4363 15.1195 68.112 15.1771C67.8453 15.2242 67.5707 15.2895 67.2987 15.2948C67.032 15.3 66.7652 15.1902 66.5011 15.2346C66.2919 15.2686 66.1794 15.402 66.0094 15.5118C65.7767 15.6635 65.7322 15.5458 65.5309 15.4804C65.34 15.4203 65.2301 15.5197 65.0837 15.6269C64.8849 15.7733 64.6783 15.8649 64.4586 15.9799C63.9748 16.2336 63.4963 16.5527 63.1223 16.9554C62.9994 17.0888 62.9209 17.1698 62.73 17.1777C62.5862 17.1829 62.2671 17.468 62.1991 17.6327C62.1311 17.8001 61.8278 17.9021 61.6787 17.9596C61.3335 18.0904 60.936 18.1375 60.6614 18.4068C60.515 18.5507 60.4234 18.7337 60.3868 18.9351C60.3528 19.1391 60.4339 19.3718 60.3424 19.5653C60.2351 19.7955 59.9213 19.9027 59.7383 20.0674C59.5761 20.2139 59.4794 20.3839 59.2806 20.4911C59.0531 20.614 58.6608 20.6689 58.551 20.9409C58.4908 21.0952 58.5562 21.3097 58.551 21.4692C58.5458 21.6418 58.5091 21.8118 58.4595 21.9765C58.381 22.2276 58.1875 22.4551 58.1378 22.7114C58.0358 23.2109 58.5536 23.7888 58.7785 24.1968C58.8962 24.4112 59.04 24.6048 59.1812 24.8035C59.2466 24.8977 59.3774 25.031 59.4009 25.1435C59.4506 25.3815 59.5134 25.7267 59.6572 25.7659C59.8873 25.8287 60.0573 25.8548 60.2535 26.0039C60.4182 26.1294 60.5516 26.3386 60.7686 26.3778C60.9491 26.4092 61.1583 26.2523 61.2054 26.5138C61.2525 26.7858 61.3126 27.6671 61.5061 27.6854C61.6316 27.6959 61.7232 27.6044 61.8435 27.6096C62.003 27.6174 62.0161 27.722 62.1364 27.8136C62.2174 27.8737 62.3377 27.8816 62.4136 27.9391C62.5339 28.0333 62.4894 28.0803 62.5757 28.1719C62.6646 28.2686 62.8346 28.266 62.9392 28.3628C63.2112 28.6138 64.0899 28.9643 64.286 29.1447C64.4508 29.2964 65.0654 29.55 65.2694 29.4821C65.5779 29.3774 65.8525 29.4324 66.1559 29.5344C66.3991 29.6154 66.6475 29.7017 66.8751 29.822C67.1235 29.9528 67.283 30.1437 67.487 30.3294C67.9394 30.74 68.3892 30.6223 68.9437 30.5281C69.1293 30.4967 69.1241 30.4575 69.2653 30.5804C69.3542 30.6563 69.383 30.7792 69.4928 30.8524C69.6942 30.9884 70.5232 30.8524 70.6278 30.706C70.7377 30.549 70.6618 30.5569 70.858 30.5124C70.9809 30.4863 71.1953 30.515 71.3156 30.5333C71.6007 30.5778 71.8125 30.7059 72.1106 30.6667C72.3643 30.6327 72.584 30.536 72.8376 30.6249C73.0678 30.706 73.1462 30.7556 73.3973 30.6563C73.6379 30.5621 73.8602 30.3686 74.1348 30.3947C74.3518 30.4157 74.8173 30.3869 74.9193 30.2509C74.9376 30.2248 75.6725 30.0757 75.7091 30.0835C75.8372 30.1149 75.9052 29.8665 76.2191 29.7436C76.4178 29.6651 76.7552 29.5893 76.9591 29.6024C77.1553 29.6154 77.2651 29.7096 77.4613 29.6102C77.5737 29.5553 77.6496 29.4428 77.7359 29.3591C78.1072 28.993 78.6093 28.857 79.0068 28.4831C79.0853 28.5484 79.2317 28.6635 79.3416 28.653C79.5063 28.6374 79.7051 28.4961 79.8411 28.4072C79.998 28.3026 80.1209 28.1928 80.181 28.0071C80.2569 27.7743 81.0676 27.1415 81.3709 26.9872C81.7737 26.7858 82.3098 26.2863 82.4405 25.847C82.5425 25.507 82.723 25.2036 82.8982 24.8872C83.0002 24.6989 83.076 24.5995 83.2931 24.5734C83.5075 24.5472 83.654 24.5525 83.837 24.4217C84.1326 24.2073 84.3052 23.8568 84.4699 23.5404C84.6425 23.2213 84.9302 22.8474 84.8517 22.4786ZM83.3035 22.782C83.3035 22.7846 83.3009 22.7846 83.3009 22.7872C83.2983 22.7846 83.2983 22.7846 83.2957 22.782C83.3009 22.7846 83.3035 22.7846 83.3035 22.782ZM82.2836 20.9148C82.2836 20.9095 82.2836 20.9043 82.2836 20.8965L82.3699 20.8337L82.2941 20.9174C82.2915 20.92 82.2889 20.9174 82.2836 20.9148ZM77.1814 29.2022C77.1657 29.2205 77.1501 29.2415 77.1344 29.2571C77.1134 29.2807 77.0951 29.3016 77.0794 29.3225C77.0742 29.2938 77.0611 29.2676 77.0428 29.2467C77.0978 29.2258 77.1422 29.2127 77.1814 29.2022Z" fill="#191919"/>
  <path d="M70.9626 6.97901L70.8868 11.3882C70.8841 11.6 70.8789 11.8118 70.8763 12.0237C70.8632 12.7978 72.0662 12.7978 72.0793 12.0237C72.1054 10.5539 72.1316 9.08422 72.1551 7.6145C72.1577 7.40267 72.163 7.19084 72.1656 6.97901C72.1786 6.20231 70.9757 6.20231 70.9626 6.97901Z" fill="#191919"/>
  <path d="M80.7145 8.89016C80.0712 10.2108 79.4253 11.5341 78.7819 12.8548C78.6904 13.043 78.5963 13.234 78.5047 13.4249C78.3635 13.7178 78.4263 14.076 78.7218 14.2486C78.9859 14.4029 79.4017 14.3271 79.5456 14.0316C80.1889 12.7109 80.8348 11.3876 81.4782 10.067C81.5697 9.87607 81.6639 9.68778 81.7554 9.49687C81.8966 9.20398 81.8338 8.8457 81.5383 8.6731C81.2742 8.5188 80.8584 8.59726 80.7145 8.89016Z" fill="#191919"/>
  <path d="M61.412 9.46058C62.0109 10.8048 62.6097 12.149 63.206 13.4906C63.2923 13.6815 63.376 13.875 63.4623 14.0685C63.5957 14.3666 64.0272 14.4346 64.2861 14.2856C64.592 14.1077 64.6339 13.7599 64.5031 13.4618C63.9042 12.1176 63.3054 10.7734 62.7091 9.43181C62.6228 9.23829 62.5391 9.04738 62.4528 8.85386C62.3195 8.55573 61.888 8.48774 61.6291 8.6368C61.3205 8.81463 61.2786 9.16245 61.412 9.46058Z" fill="#191919"/>
  <path d="M72.2127 36.1382V33.4917V33.1177C72.2127 32.8039 71.9354 32.5005 71.6112 32.5162C71.2843 32.5293 71.0097 32.7803 71.0097 33.1177V35.7642V36.1382C71.0097 36.452 71.2869 36.7554 71.6112 36.7397C71.9381 36.7266 72.2127 36.4756 72.2127 36.1382Z" fill="#191919"/>
  <path d="M80.9525 34.1713C80.5655 33.3789 80.1811 32.5891 79.794 31.7967C79.7391 31.6842 79.6842 31.5692 79.6266 31.4567C79.488 31.1717 79.0618 31.0723 78.8029 31.2397C78.5126 31.428 78.4394 31.7601 78.5858 32.0634C78.9728 32.8558 79.3573 33.6456 79.7443 34.438C79.7992 34.5505 79.8542 34.6655 79.9117 34.778C80.0503 35.063 80.4766 35.1624 80.7355 34.995C81.0284 34.8068 81.1016 34.4746 80.9525 34.1713Z" fill="#191919"/>
  <path d="M63.2191 34.8014C63.5773 33.9959 63.9356 33.1904 64.2939 32.3876C64.3462 32.2725 64.3959 32.1574 64.4482 32.0424C64.5763 31.7547 64.5423 31.3807 64.2311 31.2186C63.9696 31.08 63.5433 31.127 63.4074 31.4356C63.0491 32.2411 62.6908 33.0466 62.3325 33.8494C62.2802 33.9645 62.2305 34.0796 62.1782 34.1946C62.0501 34.4823 62.0867 34.8563 62.3953 35.0184C62.6568 35.1544 63.0805 35.1073 63.2191 34.8014Z" fill="#191919"/>
  <path d="M77.796 22.6021C77.796 26.2581 74.833 29.2237 71.1744 29.2237C67.5184 29.2237 64.5528 26.2607 64.5528 22.6021C64.5528 18.9435 67.5158 15.9805 71.1744 15.9805C74.8304 15.9831 77.796 18.9461 77.796 22.6021Z" fill="#191919"/>
  <path d="M94.7789 25.5648C94.6325 25.2405 94.9751 24.9006 94.826 24.5972C94.758 24.4586 94.5776 24.4246 94.4965 24.2808C94.4494 24.1971 94.5096 23.9539 94.3239 23.9748C93.9996 24.0114 94.0911 24.7384 94.0075 24.932C93.8322 25.3347 93.4687 25.1307 93.2621 25.387C93.0477 25.6511 93.5341 25.7348 93.5995 25.9257C93.6623 26.1062 93.4923 26.3206 93.4452 26.4775C93.3694 26.7338 93.3484 26.9587 93.3432 27.2255C93.3327 27.7746 93.1785 28.1408 92.8829 28.5932C92.624 28.9881 92.4802 29.4327 92.2265 29.8276C91.9598 30.246 91.5858 30.6069 91.3034 31.0227C91.0105 31.4568 90.5999 31.6791 90.2285 32.0321C89.886 32.3564 89.6689 32.7539 89.4283 33.1514C89.3158 33.3371 89.1877 33.5646 88.9785 33.6614C88.8216 33.7346 88.6333 33.6954 88.4738 33.7582C88.0396 33.9334 88.0998 34.3283 87.8435 34.6316C87.6892 34.8147 87.5585 34.7702 87.3728 34.8801C87.2002 34.982 87.1269 35.1233 87.004 35.2749C86.379 36.049 85.5788 36.6688 84.8648 37.354C84.5249 37.6809 84.2372 38.1856 83.8083 38.4027C83.4997 38.557 82.8747 38.4079 82.6472 38.6773C82.4458 38.9153 82.6838 39.1794 82.3726 39.4148C82.0274 39.6737 81.554 39.7495 81.2114 40.0241C81.0755 40.1339 80.9708 40.3536 80.8244 40.4399C80.6675 40.5314 80.4897 40.5001 80.3171 40.5314C79.8385 40.623 79.4541 40.8845 79.0801 41.1878C78.3871 41.7501 78.0785 42.634 77.2312 42.9714C76.4074 43.2983 75.6071 43.9364 74.7206 44.0593C74.2368 44.1273 73.8837 44.1247 73.4287 44.3391C73.026 44.5274 72.7566 44.7209 72.5108 45.1028C72.2362 45.5264 72.0191 45.8585 71.4464 45.6807C71.0018 45.5421 70.6828 45.1132 70.3062 44.8622C69.9061 44.598 69.4484 44.428 69.0352 44.1848C68.5828 43.9181 68.1618 43.6016 67.7302 43.3009C67.2883 42.9949 66.8359 42.6942 66.3547 42.4562C66.2605 42.4091 65.9049 42.3176 65.8761 42.1764C65.8473 42.0325 65.4367 41.635 65.1909 41.5853C64.681 41.486 64.2129 41.2323 63.7866 40.9473C63.3682 40.67 63.1249 40.4451 62.6098 40.4242C62.0736 40.4033 61.9115 40.2228 61.8304 39.7077C61.7546 39.2265 61.7441 39.0329 61.3492 38.7165C61.2185 38.6119 61.0799 38.4681 60.9334 38.387C60.6405 38.2275 60.5202 38.3164 60.2247 38.3112C59.8298 38.3033 59.652 37.8587 59.3382 37.6548C59.1577 37.5371 58.925 37.5005 58.7681 37.3462C58.6085 37.1919 58.585 36.9591 58.4203 36.8048C58.2686 36.6662 58.0672 36.6427 57.926 36.4805C57.824 36.3629 57.79 36.219 57.7168 36.0883C57.471 35.6489 57.178 35.2253 56.7309 34.9664C56.3098 34.7231 55.8835 34.6813 55.5697 34.2733C55.316 33.9412 55.2114 33.5123 54.9238 33.2037C54.6518 32.9161 54.3694 32.9082 54.0268 32.7801C53.6031 32.6232 53.2501 32.2021 52.9519 31.8726C52.5989 31.4803 52.4028 30.9913 52.1125 30.5546C51.8353 30.1335 51.6051 29.8171 51.5084 29.3071C51.4299 28.8913 51.3253 28.5017 51.2155 28.0963C51.1475 27.8531 51.1266 27.5994 51.001 27.3745C50.8389 27.0816 50.6271 26.8776 50.4911 26.5612C50.3159 26.1506 50.0726 25.7767 50.1929 25.3399C50.2505 25.1333 50.3368 25.0052 50.3603 24.7855C50.3865 24.5214 50.3368 24.2259 50.3211 23.9643C50.3028 23.6793 50.3655 23.1432 50.2034 22.8764C50.0988 22.7064 49.9262 22.764 49.8294 22.6463C49.6673 22.4502 49.8896 22.2279 49.9288 22.003C49.968 21.7676 49.8948 21.5218 49.9183 21.2838C49.9419 21.0511 50.0203 20.8418 50.0909 20.6222C50.2452 20.141 50.3499 19.6781 50.4205 19.176C50.4518 18.9458 50.4126 18.3836 50.5408 18.1665C50.6323 18.0096 50.7343 18.075 50.8441 17.9756C51.069 17.7769 51.0481 17.552 51.0664 17.2512C51.0952 16.7413 51.1632 16.2234 51.3593 15.7475C51.5581 15.2663 51.9006 15.0963 52.204 14.7197C52.2432 14.6727 52.1334 14.3562 52.0785 14.2542C51.9373 13.9901 52.3871 13.7547 52.5414 13.5534C52.6852 13.3651 52.7793 13.1585 52.8447 12.931C52.8813 12.8028 52.863 12.5674 52.9755 12.4681C53.1795 12.2876 53.3494 12.0836 53.3128 11.9581C53.1978 11.5606 53.8097 11.1709 54.0215 10.9042C54.236 10.6348 54.2961 10.3262 54.6073 10.2007C54.9604 10.0569 55.2271 9.9052 55.452 9.54692C55.622 9.27756 55.6142 8.96374 55.8077 8.71269C56.1006 8.33349 56.5138 8.03797 56.9008 7.77123C57.0761 7.65093 57.2277 7.55417 57.3559 7.37895C57.4762 7.21419 57.5049 6.85069 57.6645 6.72777C57.9835 6.48195 57.8554 6.8193 58.177 6.86115C58.4621 6.90037 58.7105 6.51071 58.891 6.35119C59.3173 5.97199 59.8194 5.836 59.9998 5.27635C60.1803 4.71671 60.9334 4.18845 61.5218 4.09168C61.9481 4.02369 62.3587 3.98708 62.7719 3.84063C63.3734 3.62618 63.9409 3.32282 64.5371 3.09007C64.9163 2.94101 65.4917 2.9227 65.7741 2.61934C65.9075 2.47551 65.8656 2.4049 66.067 2.3186C66.2213 2.25322 66.4357 2.30291 66.6005 2.27414C67.0399 2.20092 67.4504 1.93417 67.8741 1.79295C68.0807 1.72496 68.3161 1.63081 68.5383 1.64912C68.8522 1.67265 68.9568 1.86356 69.2157 1.98647C69.6158 2.17738 70.0996 2.03878 70.5206 2.00216C70.9992 1.96294 71.4804 1.9917 71.9564 1.92109C72.4846 1.84264 72.9109 1.88448 73.4418 1.92371C73.6667 1.94202 74.582 2.17738 74.7311 1.96294C74.8958 1.72496 75.6751 2.32383 76.1459 2.49382C76.58 2.65073 77.0742 2.62196 77.5188 2.76841C78.3609 3.043 79.2344 3.13453 80.0686 3.42482C80.555 3.59219 80.827 3.8014 81.2062 4.13614C81.656 4.53103 82.2314 4.70886 82.7047 5.06976C82.8485 5.17959 83.0551 5.45157 83.2487 5.47772C83.4317 5.50126 83.5572 5.33912 83.7429 5.37573C83.8998 5.40711 83.9731 5.54572 84.0855 5.63986C84.245 5.76801 84.3496 5.79939 84.5589 5.84123C85.0139 5.93276 85.265 6.16028 85.6572 6.39565C86.1175 6.67547 86.3973 7.02852 86.8027 7.36326C86.923 7.46264 87.1609 7.55417 87.242 7.69016C87.3806 7.92029 87.2342 7.90198 87.2316 8.1295C87.2263 8.55578 87.6761 8.66823 87.9089 8.96636C88.1652 9.29325 88.2175 9.72476 88.4711 10.0543C88.8216 10.5093 89.3289 10.4544 89.7657 10.7499C90.0376 10.933 90.545 11.49 90.5162 11.8404C90.4848 12.2275 90.2285 12.319 90.3959 12.761C90.545 13.1585 90.8562 13.5167 91.0785 13.875C91.3871 14.3667 91.6277 14.9028 91.9075 15.4127C92.1611 15.8756 92.2396 16.3359 92.407 16.8276C92.5351 17.2015 92.8411 17.3977 93.0189 17.7324C93.27 18.2031 93.0372 18.5928 93.0215 19.0714C93.0032 19.6676 93.4112 19.4401 93.6335 19.8481C93.8061 20.1645 93.5786 20.6222 93.589 20.9517C93.5995 21.357 93.8166 21.5296 93.9865 21.8644C94.1513 22.1886 94.0545 22.73 94.3317 22.9941C94.8391 23.4753 94.69 22.3011 94.6639 22.0867C94.6116 21.6682 94.7999 21.3962 94.8312 20.9987C94.86 20.6169 94.7109 20.222 94.6848 19.8376C94.6534 19.3643 94.6979 18.8778 94.5383 18.4228C94.3631 17.9259 93.9682 17.5938 93.8296 17.076C93.793 16.94 93.6936 16.6523 93.7067 16.5137C93.725 16.3071 93.7616 16.3856 93.8427 16.2574C93.9185 16.1371 93.9682 16.2339 94.0048 16.0352C94.0362 15.8599 93.8192 15.6167 93.7538 15.4729C93.5864 15.112 93.5524 14.6831 93.3458 14.3431C93.1105 13.9509 92.726 13.7626 92.522 13.3337C92.135 12.5178 91.646 11.7149 91.4498 10.831C91.3295 10.2818 91.1386 10.1903 90.7437 9.86597C90.3671 9.55738 90.0507 8.98989 89.8676 8.54531C89.7395 8.23411 89.7369 7.93337 89.3891 7.83922C89.2034 7.78953 89.104 7.86799 88.9262 7.74769C88.7954 7.65877 88.6987 7.46787 88.5967 7.35018C87.9298 6.58132 86.9517 6.16813 86.2901 5.40973C85.7488 4.79255 85.5186 3.90862 84.5484 3.79617C84.2607 3.76217 84.279 3.86678 84.0567 3.93216C83.8371 3.99754 83.9391 4.00015 83.6775 3.90339C83.1676 3.70987 82.7622 3.58957 82.4484 3.11623C82.2 2.73964 82.132 2.54612 81.69 2.37352C81.1879 2.17477 80.7747 1.98647 80.3118 1.69619C79.9143 1.44513 79.4619 1.21761 79.0042 1.09993C78.8369 1.05547 78.5649 0.963943 78.3923 1.05809C78.2249 1.15223 78.2223 1.40068 78.0209 1.42944C77.864 1.45298 77.4587 1.07378 77.3175 1.01102C76.8807 0.814878 76.3838 0.773036 75.9157 0.69458C75.3848 0.605665 74.8827 0.461831 74.3675 0.307536C73.9439 0.182008 73.2378 -0.100431 72.8115 0.150626C72.5579 0.29969 72.5317 0.621356 72.1813 0.548131C72.0061 0.511519 71.8021 0.278769 71.6295 0.205544C71.4124 0.116629 71.1509 0.080016 70.9208 0.0434037C70.382 -0.0428969 69.8773 -0.00628432 69.3726 0.205544C68.8548 0.419988 68.473 0.940406 67.9238 1.0607C67.5655 1.13916 67.1968 1.02409 66.8463 0.961328C66.3102 0.864567 66.0827 1.04763 65.5858 1.18623C65.3295 1.25684 65.0994 1.19146 64.8431 1.21761C64.5868 1.24377 64.4142 1.37452 64.1998 1.49482C63.6401 1.81126 62.9942 1.94202 62.3927 2.15907C60.4209 2.87302 58.5719 4.06292 57.1362 5.58494C56.4746 6.28581 55.4442 6.46103 54.9892 7.36587C54.7878 7.76861 54.623 8.20796 54.4086 8.60023C54.1654 9.04743 53.7417 8.95328 53.3678 9.22787C53.0121 9.48939 52.7218 9.8869 52.557 10.2922C52.3635 10.7708 52.1465 11.2023 51.9085 11.66C51.6548 12.1464 51.3985 12.6276 51.1292 13.1036C50.9932 13.3415 50.8886 13.8724 50.6506 14.0189C50.5957 13.8358 49.6516 15.4154 49.5444 15.7893C49.479 16.0195 49.4188 16.2104 49.4215 16.4536C49.4241 16.6916 49.5261 16.9191 49.5313 17.1571C49.547 17.7246 49.1966 18.1822 49.0606 18.7157C48.9586 19.1237 48.9455 19.427 48.6369 19.7356C48.2446 20.1279 48.174 20.3711 48.2499 20.9203C48.3152 21.3832 48.3257 21.7022 48.2028 22.1573C48.1139 22.4894 48.072 22.6698 48.1845 23.002C48.2499 23.1981 48.3597 23.3629 48.3989 23.5721C48.5088 24.1526 48.4512 24.762 48.5506 25.3504C48.5977 25.6302 48.7494 25.978 48.7075 26.2631C48.6735 26.4854 48.4878 26.6423 48.4722 26.8698C48.4408 27.3091 48.8304 27.9656 49.1024 28.2715C49.2646 28.452 49.6568 28.9541 49.9157 28.9175C50.0386 28.9018 49.9811 28.7449 50.1276 28.7789C50.3054 28.8181 50.2139 29.3987 50.2243 29.5163C50.2766 30.0446 50.614 30.6121 50.8337 31.0959C50.9723 31.4019 51.1239 31.7026 51.2835 31.9981C51.4247 32.257 51.579 32.5656 51.7987 32.7696C52.0628 33.0128 52.0759 32.8821 52.3191 32.7147C52.4577 32.8141 52.5204 32.9814 52.6512 33.0965C52.7976 33.2247 53.0932 33.311 53.1298 33.5359C53.1768 33.8105 52.9467 33.936 53.0592 34.242C53.1481 34.4826 53.3573 34.697 53.5613 34.8382C53.7653 34.9768 53.964 35.0344 54.1235 35.2305C54.2935 35.4397 54.3981 35.6908 54.5786 35.8974C54.7643 36.1092 54.9996 36.2818 55.235 36.4387C55.4991 36.6165 55.9045 36.7421 56.1267 36.9748C56.404 37.2599 56.132 37.7201 56.5687 37.8587C56.7256 37.9084 56.9008 37.8613 57.0577 37.9163C57.335 38.0104 57.3951 38.2301 57.552 38.4445C57.9051 38.9231 58.5955 39.0852 59.0767 39.4174C59.2754 39.5534 59.4899 39.8175 59.7278 39.8593C59.9632 39.9012 60.0495 39.7443 60.2666 39.9404C60.4758 40.1261 60.5935 40.3431 60.8367 40.4974C61.0799 40.6517 61.3571 40.7459 61.6081 40.8845C61.8383 41.0126 62.037 41.1748 62.2489 41.3238C62.5731 41.5513 62.9445 41.6926 63.274 41.907C63.7107 42.1921 64.2181 42.5739 64.5894 42.9374C64.7594 43.1048 64.7908 43.2826 64.9163 43.4657C65.0811 43.7062 65.306 43.735 65.5806 43.7507C65.8473 43.769 66.0879 43.7272 66.3181 43.8893C66.5377 44.0462 66.5848 44.2162 66.8751 44.2973C67.0634 44.3496 67.2621 44.2894 67.304 44.5091C67.3484 44.7366 67.1863 44.7968 67.4164 44.9929C67.7852 45.3041 68.4573 45.3956 68.894 45.6075C69.5478 45.9239 70.1911 46.1697 70.8763 46.4051C71.5589 46.6405 71.925 46.664 72.6075 46.4077C72.856 46.3136 73.1463 46.2717 73.3869 46.1645C73.6771 46.0364 73.5333 45.9579 73.6588 45.7382C73.7791 45.5264 73.9674 45.6101 74.1897 45.5552C74.4277 45.495 74.5925 45.3277 74.7964 45.1969C75.3482 44.8412 75.9706 44.9458 76.5277 44.6425C77.0219 44.3757 77.3881 43.8553 77.8954 43.6226C78.136 43.5127 78.2589 43.6121 78.51 43.6199C78.8578 43.633 79.1455 43.3689 79.4253 43.1858C79.9588 42.8354 80.4452 42.3987 81.0127 42.1058C81.4991 41.8547 82.1817 41.6743 82.4903 41.1878C82.6132 40.9943 82.6629 40.7642 82.7858 40.5707C82.927 40.351 83.131 40.1627 83.3114 39.9744C83.4971 39.7809 83.6802 39.59 83.9181 39.4618C84.2477 39.2892 84.6295 39.2762 84.9721 39.1376C85.2493 39.0251 85.312 38.8368 85.5291 38.6851C85.7148 38.5544 85.822 38.659 86.0469 38.6197C86.5542 38.5282 86.957 37.8797 87.3257 37.5632C87.5689 37.354 87.8592 37.184 88.0606 36.9304C88.2279 36.7185 88.309 36.4544 88.4633 36.2347C88.7876 35.7771 89.3263 35.73 89.75 35.4109C90.1239 35.1259 90.4351 34.5296 90.4796 34.0615C90.4901 33.9647 90.613 33.8026 90.6391 33.936C90.728 34.3701 91.1648 33.6588 91.2432 33.5306C91.5963 32.971 92.0225 32.5081 92.4619 32.0191C92.6554 31.802 93.4347 31.1168 93.2203 30.7638C93.1183 30.5964 93.032 29.9426 93.2334 29.8537C93.5864 29.6994 93.7564 29.6916 94.0336 29.3725C94.2507 29.1241 94.4311 28.8599 94.4651 28.5252C94.4991 28.1957 94.4285 27.8923 94.4939 27.5602C94.5619 27.215 94.6403 26.8593 94.724 26.5168C94.8129 26.2448 94.9463 25.5648 94.7789 25.5648ZM66.9222 1.76941C66.9117 1.76157 66.9012 1.75372 66.8908 1.74588C66.93 1.75372 66.9562 1.77988 66.9875 1.82433C66.9666 1.80341 66.9457 1.78772 66.9222 1.76941ZM54.5576 9.97058C54.5524 9.95228 54.5446 9.93658 54.5367 9.92612C54.5158 9.89474 54.4844 9.87905 54.4557 9.86859C54.5367 9.76921 54.6466 9.63846 54.7538 9.52339C54.759 9.51816 54.7642 9.51293 54.7721 9.5077L54.7407 9.56785C54.6466 9.76137 54.589 9.88428 54.5576 9.97058Z" fill="#191919"/>
  <path d="M86.8759 55.6073C86.9282 55.4556 86.4208 55.1418 86.2299 55.1653C85.8638 55.2098 85.5892 54.9587 85.3355 54.7208C85.0635 54.4619 84.8203 54.1742 84.5954 53.8735C84.3496 53.5466 84.1404 53.3896 83.7272 53.3295C83.4578 53.2903 83.0996 53.285 82.9479 53.0131C82.8851 52.9006 82.5268 52.6496 82.383 52.6443C82.0692 52.6312 82.0666 52.1553 81.7528 52.0821C81.4442 52.0088 81.0963 52.2364 80.8191 52.0062C80.5628 51.7944 80.6047 51.321 80.3013 51.1641C79.9587 50.9837 79.6345 51.4178 79.3102 51.1118C79.0225 50.8399 78.7976 50.4214 78.5858 50.0945C78.4838 49.9376 78.3583 49.6918 78.1778 49.616C77.9843 49.5349 77.7542 49.6133 77.558 49.6526C77.3279 49.697 77.205 49.1661 77.1579 49.0119C77.0951 48.8 76.8519 48.8236 76.6767 48.8079C76.2007 48.7686 76.1694 48.4679 75.8451 48.1985C75.5417 47.9449 75.0187 47.8324 74.629 47.8193C74.2995 47.8089 73.9962 47.801 73.8314 47.4741C73.7503 47.312 73.7503 47.1132 73.63 46.9694C73.4757 46.7811 73.2351 46.8125 73.0364 46.7131C72.7592 46.5745 72.652 46.245 72.3721 46.1064C72.0295 45.9364 71.4333 46.0175 71.075 46.1038C70.8998 46.1456 70.7664 46.2424 70.6069 46.3156C70.4395 46.3915 70.2617 46.4228 70.0891 46.483C69.7073 46.6137 69.3621 46.8073 69.0352 47.0322C68.8051 47.1917 68.4834 46.9197 68.4415 47.2492C68.4206 47.4166 68.5017 47.5369 68.3474 47.6598C68.2166 47.767 67.9839 47.7461 67.8348 47.835C67.6675 47.937 67.5498 48.0861 67.3667 48.1672C67.168 48.2535 66.9483 48.2378 66.7495 48.3136C66.3023 48.4836 66.5586 48.9883 66.1847 49.2001C65.8996 49.3623 65.5596 49.3074 65.3007 49.5401C65.0235 49.7912 64.8797 50.1547 64.4717 50.2174C64.2625 50.2514 64.0507 50.1913 63.8415 50.2253C63.6244 50.2593 63.4387 50.3665 63.2635 50.4947C63.1171 50.6019 62.9314 50.7483 62.934 50.9523C62.9366 51.0752 63.0883 51.2321 62.9732 51.3341C62.8032 51.478 62.5888 51.0909 62.4528 51.0412C62.0971 50.9105 61.7938 51.512 61.514 51.6584C61.2446 51.7996 60.8916 51.8153 60.664 52.0245C60.4208 52.2494 60.4444 52.6286 60.2116 52.8588C59.7775 53.2877 58.9459 52.5946 58.8831 53.4263C58.857 53.7558 58.8099 53.8264 58.4934 53.7218C58.1456 53.6041 57.892 53.6355 57.6069 53.8918C57.3088 54.1637 55.6455 55.8008 56.2287 56.2689C56.5687 56.5435 57.0106 56.1774 57.2695 55.9865C57.5991 55.7407 57.9416 55.8113 58.2921 55.6544C58.4856 55.5681 58.5457 55.4216 58.6791 55.2726C58.8779 55.0503 59.04 55.0477 59.3198 55.0084C59.6703 54.9587 60.1698 54.8384 60.3607 54.5142C60.5463 54.1951 60.5987 53.9964 61.0223 54.0199C61.1661 54.0277 61.5297 53.6407 61.5061 53.4707C61.4538 53.0915 62.547 53.238 62.7875 52.9817C62.9105 52.8509 62.9915 52.6809 63.1249 52.5606C63.3027 52.4011 63.5041 52.3802 63.7238 52.3148C63.9095 52.2599 64.0507 52.1657 64.2154 52.0768C64.3828 51.9853 64.5397 51.9775 64.7149 51.9199C65.1098 51.7918 64.8954 51.5564 64.9686 51.2609C65.0549 50.9105 65.5361 51.1432 65.7819 51.0517C65.9519 50.9889 66.0931 50.8451 66.2474 50.7509C66.4697 50.6176 66.7103 50.5234 66.9352 50.4031C67.2752 50.2201 67.5132 49.901 67.8505 49.7284C68.0127 49.6447 68.1957 49.6238 68.3239 49.48C68.4938 49.2891 68.4938 49.0903 68.7789 49.0302C68.9541 48.9909 69.4144 48.698 69.4745 48.5803C69.5373 48.4574 69.6184 48.3319 69.7727 48.3188C69.9636 48.3005 70.0551 48.4757 70.2094 48.5437C70.5572 48.698 70.6644 48.3528 70.735 48.0887C70.7612 47.9946 71.177 47.9344 71.3025 47.9867C71.5301 48.0756 71.925 48.7111 72.38 48.6248C72.5395 48.5934 72.7043 48.4627 72.8769 48.5045C73.0573 48.5464 73.1148 48.7216 73.1855 48.8654C73.2561 49.0066 73.311 49.1295 73.4862 49.1243C73.6431 49.1217 73.753 48.9465 73.8916 49.0929C74.0119 49.2185 73.9674 49.3963 74.1217 49.527C74.2472 49.6343 74.4198 49.697 74.5532 49.7938C74.8722 50.0265 75.1128 50.241 75.5182 50.2985C76.0988 50.377 76.9356 50.2776 77.1553 50.9706C77.1971 51.0988 77.1971 51.2269 77.2965 51.3263C77.4168 51.4466 77.6391 51.478 77.7908 51.5433C78.2667 51.7499 78.693 51.9984 79.1925 52.1631C79.4069 52.2337 79.6162 52.2939 79.7861 52.4482C79.9483 52.5946 80.0424 52.8012 80.1706 52.9738C80.4164 53.3007 80.7407 53.7453 81.1329 53.8918C81.4808 54.0225 82.3542 54.6685 82.7517 54.8777C82.9008 54.9561 83.0603 54.977 83.1989 55.0817C83.3454 55.1915 83.4343 55.3562 83.5834 55.4661C83.7272 55.5759 83.8972 55.6491 84.0436 55.7564C84.1901 55.8636 84.347 56.0283 84.5457 56.01C84.7602 55.9891 84.9956 55.6361 85.0452 55.9656C85.0792 56.1853 84.9616 56.4442 85.2911 56.4232C85.618 56.4023 85.7618 56.2506 85.6598 56.6874C85.5814 57.0247 85.8455 56.8338 85.9998 56.7135C86.1881 56.5671 86.3738 56.3997 86.549 56.2349C86.6902 56.1042 86.7399 55.9944 86.7922 55.8113C86.8209 55.7642 86.8497 55.691 86.8759 55.6073ZM68.1983 48.0756C68.2009 48.0782 68.201 48.0782 68.2036 48.0809C68.201 48.0809 68.1983 48.0809 68.1983 48.0835C68.1957 48.0782 68.1957 48.0782 68.1983 48.0756ZM63.2583 50.6725C63.2557 50.6751 63.2557 50.6751 63.253 50.6777C63.253 50.6751 63.2557 50.6725 63.2583 50.6725ZM72.8952 48.1332C72.8926 48.1227 72.8926 48.1148 72.8899 48.107C72.8899 48.1044 72.8899 48.1018 72.8899 48.0992C72.8978 48.0992 72.9056 48.1018 72.9135 48.1018C72.9082 48.1122 72.9004 48.1227 72.8952 48.1332Z" fill="#191919"/>
  <path d="M96.9704 46.0726C96.9573 46.0517 96.9364 46.0308 96.9103 46.0099C96.7429 45.8739 96.3977 45.8477 96.1989 45.7693C95.9191 45.6594 95.5687 45.4842 95.2575 45.547C95.0404 45.5914 94.486 45.5548 94.2846 45.4659C94.1016 45.3848 93.7799 45.4031 93.5995 45.4738C93.317 45.5836 93.0974 45.7143 92.7809 45.6934C92.4462 45.6699 92.216 45.2776 91.8604 45.3691C91.7427 45.4005 91.6773 45.4738 91.5466 45.4607C91.387 45.4476 91.3086 45.3142 91.1831 45.241C90.8745 45.0658 90.8875 45.3639 90.6548 45.479C90.409 45.6019 89.933 45.6542 89.6689 45.5914C89.3995 45.5261 89.2191 45.2018 88.9445 45.1835C88.5914 45.1573 88.5522 45.6202 88.3534 45.8085C88.0422 46.1014 87.9716 45.7222 87.752 45.5627C87.6317 45.4738 86.6274 45.2332 86.4601 45.2645C86.1645 45.3221 86.1541 45.6385 85.8533 45.6804C85.5735 45.717 85.1995 45.5888 84.9406 45.4999C84.734 45.4293 84.4516 45.2619 84.2319 45.3639C84.0986 45.4267 84.0724 45.7013 83.9417 45.7117C83.7821 45.7248 83.6592 45.3613 83.5441 45.2724C83.2434 45.0423 82.9557 45.241 82.757 45.4894C82.6707 45.5993 81.9934 45.6516 81.8024 45.5757C81.6168 45.5025 81.3003 45.4293 81.1068 45.4241C80.9342 45.4188 80.7694 45.4764 80.5968 45.4738C80.3824 45.4711 80.1732 45.4031 79.9614 45.3822C79.6057 45.3456 79.2213 45.3404 78.8656 45.3587C78.557 45.3744 78.2746 45.5574 77.966 45.5287C77.6966 45.5025 77.4665 45.309 77.1841 45.3587C76.899 45.4084 76.8022 45.6856 76.5616 45.7876C76.3158 45.8896 76.3524 45.6071 76.1955 45.4816C75.8686 45.2175 75.5888 45.4659 75.2828 45.5836C75.0396 45.6777 74.6813 45.7143 74.4303 45.6568C74.0406 45.5679 74.3806 45.4215 74.1792 45.2122C73.97 44.9978 73.4914 45.173 73.2639 45.2645C73.0338 45.3561 72.9213 45.6385 72.6703 45.6568C72.5604 45.6647 72.3905 45.5914 72.2937 45.547C72.0636 45.4371 72.0636 45.275 71.8936 45.1259C71.6608 44.9193 71.4464 45.1573 71.1796 45.1573C71.0567 45.1573 70.9417 45.0789 70.8161 45.0998C70.4265 45.1625 70.3114 45.6176 69.8119 45.3979C69.6236 45.3142 69.5268 45.0998 69.3464 45.0213C69.1476 44.935 68.9044 45.0606 68.7763 45.2149C68.6848 45.3273 68.6298 45.6804 68.4912 45.73C68.3369 45.7876 68.1147 45.547 67.9944 45.4711C67.8191 45.3639 67.5995 45.2515 67.3981 45.207C67.1837 45.1599 67.0241 45.1835 66.8986 45.3613C66.8071 45.4921 66.7574 45.7483 66.5743 45.6097C66.4096 45.4842 66.4043 45.2828 66.1664 45.2044C65.9702 45.1416 65.7401 45.1652 65.5413 45.2018C65.353 45.2358 65.1281 45.3875 64.9398 45.3613C64.7777 45.3378 64.7882 45.2122 64.6888 45.1181C64.5214 44.9586 64.511 45.1024 64.3907 45.2149C64.2024 45.3901 64.0925 45.2881 63.8467 45.2985C63.593 45.309 63.376 45.4554 63.1484 45.5496C62.7353 45.7222 61.6055 45.9079 61.208 45.6594C60.9779 45.513 60.9229 45.3508 60.6457 45.2959C60.3947 45.2462 60.3136 45.866 59.9266 45.4868C59.7121 45.2776 59.6023 45.2802 59.2989 45.3561C58.9642 45.4398 58.6321 45.5574 58.2947 45.6202C57.9913 45.6777 57.6906 45.5784 57.3925 45.6542C57.144 45.717 56.9636 45.8686 56.7047 45.7379C56.4902 45.6307 56.3856 45.4685 56.1189 45.4894C56.0012 45.4999 55.8861 45.5627 55.7658 45.5574C55.6089 45.5496 55.5383 45.4424 55.418 45.3665C55.133 45.1861 54.9839 45.2645 54.6596 45.2959C54.4007 45.3195 54.202 45.1704 53.9509 45.1678C53.7574 45.1678 53.6632 45.2776 53.5455 45.4136C53.4096 45.5705 53.305 45.7117 53.0827 45.7379C52.7793 45.7745 52.4786 45.547 52.2301 45.4005C51.9738 45.2489 51.6966 45.0762 51.388 45.0867C51.1239 45.0972 51.0036 45.3247 50.7813 45.3535C50.525 45.3875 50.4466 45.0396 50.1851 45.0501C49.5966 45.0762 49.4424 45.2227 48.8069 45.0684C48.4878 44.9926 48.3178 45.0318 48.2315 45.3613C48.1871 45.5339 47.6588 44.9429 47.3241 45.0789C47.243 45.1129 47.2011 45.2018 47.1358 45.2567C47.0102 45.3613 46.869 45.4005 46.7174 45.4581C45.5301 45.9053 45.9616 47.2416 46.9553 46.6846C47.2064 46.5434 47.3267 46.4754 47.6248 46.4989C47.902 46.5224 48.1714 46.5904 48.4434 46.648C48.7729 46.716 49.1311 46.9173 49.4659 46.9095C49.5966 46.9069 49.7745 46.8023 49.9026 46.8415C50.0491 46.8859 50.0308 47.0298 50.138 47.1108C50.444 47.3358 51.7437 46.9409 52.0915 46.8598C52.2327 46.8284 52.4158 46.75 52.5649 46.7761C52.7767 46.8127 53.2631 46.9566 53.3233 46.8912C53.4122 46.7944 53.5037 46.7709 53.6345 46.7761C53.8855 46.7892 54.1287 46.9435 54.3589 47.0272C54.623 47.1213 54.8636 47.1239 55.0937 46.9382C55.3265 46.7473 56.4484 46.5747 56.6968 46.8101C56.9557 47.0585 58.6347 46.6898 58.7968 46.7238C59.0296 46.7709 59.2702 46.7421 59.5055 46.7787C59.6729 46.8049 59.8376 46.8572 60.0076 46.8729C60.1645 46.8886 60.3685 46.8336 60.5045 46.933C60.7503 47.1108 61.2838 46.967 61.4643 46.9199C61.6264 46.8781 61.7964 46.9016 61.9481 46.8258C62.1678 46.7186 63.5303 46.9722 63.9513 46.9906C64.3305 47.0062 64.5031 47.1736 64.8248 47.3148C65.2014 47.4796 65.2589 47.0742 65.5727 47.0585C65.7924 47.0481 66.5011 46.9487 66.692 46.797C67.2124 46.3838 68.0074 46.8729 68.4808 47.103C68.6508 47.1867 68.8208 47.2416 69.0117 47.1893C69.3124 47.1108 69.4405 46.9958 69.7387 46.9932C70.0839 46.9879 70.1623 47.4456 70.6174 47.2311C70.9835 47.0585 71.0959 46.716 71.5562 46.8415C71.7262 46.8886 71.8465 46.9618 72.0296 46.9566C72.1551 46.9539 72.2832 46.8859 72.4114 46.899C72.5892 46.9199 72.6363 47.0664 72.7827 47.1239C72.9553 47.1919 73.1201 47.069 73.2796 47.0219C73.4914 46.9592 73.6353 46.9356 73.8366 47.0507C73.9517 47.1161 74.0694 47.3279 74.2289 47.2808C74.3152 47.2573 74.31 47.137 74.3701 47.0925C74.4591 47.0219 74.5427 47.0638 74.6683 47.069C74.8435 47.0768 74.9246 47.0167 75.0187 47.1605C75.0579 47.2207 75.2959 46.9618 75.4607 46.8859C75.7693 46.7473 76.2243 47.1056 76.5276 47.1475C76.7499 47.1788 76.9801 47.1187 77.2076 47.1108C77.3122 47.1082 77.4194 47.1109 77.524 47.0847C77.6051 47.0638 77.7986 46.9095 77.8849 46.9356C78.0026 46.9749 77.9634 47.0716 78.0261 47.1501C78.1177 47.2625 78.2223 47.2625 78.3583 47.2782C78.6276 47.307 78.7845 47.2808 78.9702 47.0821C79.0748 46.967 79.6632 46.797 79.8463 46.9252C80.793 47.5999 81.5906 46.4204 82.4353 46.7735C82.5948 46.8389 82.6811 46.9879 82.8171 47.0821C83.1832 47.3331 83.6017 47.1605 84.0044 47.1422C84.2267 47.1318 84.4882 47.1579 84.7 47.0716C84.8936 46.9932 84.8465 46.9278 84.9171 46.763C84.9642 46.6584 85.244 46.9278 85.2963 47.0298C85.652 47.7333 87.799 47.3227 88.1024 47.375C88.2462 47.3985 88.4424 47.456 88.581 47.3802C89.0177 47.137 91.1804 47.5999 91.6224 47.2128C91.7793 47.0742 91.8185 46.7421 92.067 46.7238C92.2997 46.7081 92.4383 47.0324 92.5979 47.1501C92.9588 47.4194 93.8008 47.2233 94.2166 47.1684C94.4599 47.1344 94.7214 46.8363 94.9698 46.8755C95.1738 46.9069 95.6341 46.9069 95.8197 46.8441C95.9531 46.797 96.1048 46.8624 96.246 46.8153C96.3872 46.7683 96.4892 46.6454 96.6043 46.5617C96.7403 46.4571 97.1143 46.2766 96.9704 46.0726ZM76.3341 46.7107C76.3158 46.7212 76.2975 46.7316 76.2818 46.7421C76.2714 46.7473 76.2609 46.7526 76.2504 46.7604C76.2504 46.7395 76.2478 46.716 76.2452 46.6977C76.2766 46.7003 76.3054 46.7055 76.3341 46.7107ZM49.7509 45.3979C49.7405 45.4188 49.7169 45.445 49.6908 45.4711C49.6594 45.5077 49.6254 45.5444 49.5993 45.5888C49.594 45.5967 49.5914 45.6019 49.5888 45.6097C49.5836 45.5941 49.5783 45.5757 49.5731 45.5574C49.5705 45.5522 49.5705 45.547 49.5679 45.5417C49.5862 45.5261 49.6097 45.5104 49.628 45.4973C49.6699 45.4685 49.7169 45.4345 49.7509 45.3979ZM82.8851 47.1239L82.8799 47.0638C82.8956 47.0664 82.9113 47.069 82.9322 47.0716C82.9165 47.103 82.893 47.1213 82.8851 47.1239Z" fill="#191919"/>
</svg>