<svg xmlns="http://www.w3.org/2000/svg" width="88" height="68" viewBox="0 0 88 68" fill="none">
  <path d="M7.23126 39.784C7.21315 39.784 6.68348 40.4554 6.68348 40.4554C6.68348 40.4554 5.43702 39.0931 4.60706 39.0931C3.83293 39.0931 3.32288 39.7027 3.13425 39.9482L3.2097 40.457L3.47378 40.8032L4.68251 41.6177L5.11711 42.1053L5.74034 42.5524L6.00442 42.9181L6.4194 43.4269L6.75893 44.4445L7.06074 45.2785C7.1543 45.5418 7.19353 45.7873 7.19353 46.0506C7.19353 47.7184 5.3993 49.2026 3.94611 49.2026C3.02107 49.2026 2.13376 48.9588 2.13376 48.9588L1.24646 48.6938L0.925034 48.3882C0.716789 48.2451 0 47.738 0 47.0666C0 46.1514 0.377258 45.7645 0.849583 45.7645C1.18911 45.7645 1.49092 46.7203 3.56885 46.7203C4.3626 46.7203 4.98432 46.2115 4.98432 45.4394C4.98432 45.2557 4.90887 45.0736 4.87114 44.9712L4.54972 44.6867L4.11512 44.0154L3.54923 43.7309C2.51102 43.1603 1.03821 41.6355 1.03821 40.1514C1.03821 38.7485 2.0387 37.8528 2.0387 37.8528L2.87017 37.4253L3.32288 37.162C3.32288 37.162 3.90838 37.04 4.30375 37.04C6.38017 37.04 7.7398 37.9764 7.7398 39.1956C7.74131 39.3158 7.40178 39.6215 7.23126 39.784Z" fill="#1A1A1A"/>
  <path d="M18.2955 49.141C18.1922 49.1823 18.0873 49.2038 17.9624 49.2038C17.6494 49.2038 17.3163 49.0798 17.3163 49.0798L16.607 48.6038L15.1283 48.9145C14.4622 49.0187 13.8161 49.0798 13.2949 49.0798C12.379 49.0798 11.8995 48.4187 11.3366 47.736C10.857 47.1575 10.504 46.4533 10.504 46.0814C10.504 44.1574 11.9627 42.5244 11.9627 42.5244L12.5672 41.7392L12.9635 41.5525C12.9635 41.5525 13.6096 41.1591 14.2557 41.1591C14.5887 41.1591 15.0467 41.5525 15.3181 41.5525C15.3597 41.5525 15.4014 41.5525 15.443 41.5111L15.9009 41.0764C15.9009 41.0764 16.2756 40.9111 16.5254 40.9111C17.0049 40.9111 17.8375 42.1111 17.9624 43.1442L18.0673 43.931L18.5053 45.7723L18.5253 46.579C18.5253 46.5988 18.7967 47.2831 18.7967 47.2831C18.7967 47.2831 18.6085 49.017 18.2955 49.141ZM15.9625 44.9426L15.5462 44.3013L15.3381 43.7839C15.2348 43.536 15.005 43.4731 14.7136 43.4731C14.5471 43.4731 14.3589 43.4946 14.1724 43.4946C13.3382 43.4946 12.4023 44.4252 12.4023 45.3558C12.4023 45.5426 12.7154 46.1839 12.7154 46.1839L13.1733 46.5145L13.3815 46.8451C13.5064 47.0319 13.9643 47.0517 14.0908 47.0517C15.2998 47.0517 16.0907 46.3905 16.0907 45.4186C16.0874 45.212 15.9625 44.9426 15.9625 44.9426Z" fill="#1A1A1A"/>
  <path d="M27.6422 47.2526C27.6422 47.2526 27.0698 47.9658 26.7131 48.1229C26.4121 48.2591 26.0058 48.3056 25.8057 48.3312L24.2251 49.1373L24.222 49.1405L23.5705 49.1934L23.5503 49.1966L23.2804 49.203C23.2804 49.203 22.8756 48.3825 22.8756 47.9818C22.8756 47.8456 22.8927 47.6998 22.9206 47.5635C22.9594 47.352 23.0136 47.1597 23.0493 47.0379L22.9516 45.2157L23.1657 44.5538L23.1827 44.1131L23.085 43.1708L23.1052 41.9464L23.223 41.2236L23.1052 41.0056L21.6704 40.8662C21.2826 40.8453 21.0081 40.5441 21.0081 40.0633C21.0081 39.7812 21.4346 38.677 21.4346 38.677C21.4346 38.677 22.2117 38.8998 22.5018 38.8998C22.8136 38.8789 23.2991 38.8789 23.2991 38.56V38.5392L23.223 37.576L23.3378 37.0567L23.3766 36.6946L23.5147 36.2939C23.5147 36.2538 23.4945 36.1929 23.4945 36.1112C23.4945 35.6705 23.6713 34.8291 24.6966 34.8291C25.241 34.8291 25.5528 35.1512 25.5528 35.7314C25.5528 35.8099 25.3589 36.5936 25.3372 36.7122L25.3744 37.5359L25.3155 38.1978C25.3155 38.3597 25.3574 38.5167 25.5513 38.5167L26.3656 38.5985C26.7922 38.6385 27.4716 39.2395 27.4716 39.802C27.4716 40.0024 27.1799 40.2251 27.0078 40.403C26.8139 40.621 26.62 40.9046 26.3284 40.9046H26.2694L25.9406 40.8646L25.4179 40.9655L25.0472 40.9832L25.027 42.6275L24.7943 43.6307L24.8905 44.916L24.8316 45.8584L24.9014 46.6212L25.148 46.485L25.7095 46.3664L26.0352 46.1805L26.5859 46.2414L27.3351 46.4129L27.394 46.7093L27.6422 47.2526Z" fill="#1A1A1A"/>
  <path d="M37.3913 44.1724L37.1529 44.8752L36.2772 46.3402L36.0976 46.8617L35.6002 47.7458L35.5017 48.2882L34.9852 49.3729L34.8262 49.835C34.5879 50.7191 33.7519 51.8825 33.6327 52.0638L33.3943 52.9271L32.8572 53.6892C32.5584 54.0503 32.4392 54.5333 32.2596 55.0949C32.1992 55.3757 31.6239 55.8169 31.047 55.8378H30.8881C30.4113 55.8378 30.0124 55.5762 30.0124 54.9152C30.0124 54.7338 30.3907 53.8112 30.6879 53.1485L31.0264 52.4056L31.3442 51.9435L32.0403 50.5186L32.4376 50.1174L32.7952 49.2943C33.0527 48.7728 33.1734 48.3909 33.1734 48.009C33.1734 47.3672 32.4376 46.4429 31.5238 45.7802C31.3252 45.639 31.1058 45.4593 31.0073 45.3983L30.5305 45.1576L30.1523 44.6153C30.1523 44.6153 29.8535 44.113 29.8535 43.7921C29.8535 42.6673 30.2906 42.5277 30.6688 42.5277C30.8086 42.5277 30.9263 42.547 31.0264 42.547C31.2457 42.547 32.2199 43.4712 32.8953 44.1532C33.4722 44.6361 33.6105 45.4978 34.3272 45.4978C34.367 45.4978 34.4273 45.4786 34.4671 45.4786L34.7659 45.1769L35.0233 44.9362L35.044 44.6955L35.9991 42.5678C36.3567 41.8249 36.8541 41.4639 37.2912 41.4639C37.7679 41.4639 38.1462 41.9051 38.1462 42.7893C38.1462 43.0893 37.5105 43.9927 37.3913 44.1724Z" fill="#1A1A1A"/>
  <path d="M46.4682 42.0892C45.5207 42.1939 44.5523 42.5879 44.4524 43.1914L44.3718 43.6902L43.948 44.6894C43.948 44.6894 43.9077 44.8773 43.9077 45.3345C43.9077 46.3337 44.2494 47.1649 44.2494 47.539C44.2494 48.1425 43.7853 49.2032 43.0601 49.2032C42.7169 49.2032 42.3753 48.766 42.2142 48.372L42.0321 47.8715L41.8097 47.3728L41.829 46.1874L41.7485 45.7717L41.7678 45.0651L41.7066 44.5032L41.8677 43.5672L41.7662 42.1939L41.5438 41.0501L41.4633 39.7599V39.6768C41.4633 39.1564 41.8468 38.6992 42.5123 38.6992C42.8958 38.6992 43.5001 39.178 43.5001 39.5521L43.4791 39.74L43.6 40.114V40.385L43.6612 40.6145C43.7015 40.7807 43.7821 40.947 43.9432 40.947C44.7908 40.947 45.2533 39.6984 46.3232 39.6984C47.332 39.6984 48.0974 40.2188 48.0974 40.7591C48.1006 41.2778 47.2546 42.006 46.4682 42.0892Z" fill="#1A1A1A"/>
  <path d="M51.9748 39.2442H51.8646C51.5353 39.2442 51.2059 39.089 51.097 38.8361L50.8616 38.3118L50.9868 37.5547L51.3938 37.0691L51.7231 36.4873L52.2553 36.5649C52.6785 36.6626 52.9765 36.9341 52.9765 37.6136C52.9778 38.5833 52.4143 39.2442 51.9748 39.2442ZM52.9628 42.8543L53.0567 44.9503L52.9628 45.4359C52.9628 45.4359 52.8375 46.0564 52.8375 46.4645C52.8375 46.8911 52.9628 47.6684 52.9628 47.6684L52.8851 48.1539C52.7599 48.6969 52.3842 49.2027 51.9923 49.2027C51.4589 49.2027 51.256 48.8536 51.256 48.019C51.256 47.9026 51.3499 47.5722 51.3499 47.3193L51.3023 46.1154C51.3023 46.1154 51.2084 45.0868 51.2084 44.038C51.2084 43.3787 51.256 42.7178 51.365 42.3299L51.5052 41.8645L51.6617 41.3013C51.7719 40.9911 52.1163 40.6606 52.398 40.6606C52.9152 40.6606 52.9941 41.4565 52.9941 41.4565L53.0729 41.8056L52.9628 42.8543Z" fill="#1A1A1A"/>
  <path d="M63.4717 43.9179L62.7673 43.1658L62.1643 42.8409L61.7815 42.9027L61.4599 42.8832L61.1174 43.0456L60.6751 43.2292C60.4339 43.494 59.6282 44.5709 59.6282 45.7292C59.6282 46.4618 60.2714 46.8468 60.4934 46.928L63.2305 46.785H63.2707C63.7934 46.785 64.4383 47.3942 64.4383 47.862C64.4383 48.2275 63.9751 48.5735 63.2112 48.8984C62.8494 49.0413 62.4666 49.2038 62.145 49.2038C61.9247 49.2038 61.0176 49.0007 61.0176 49.0007L60.3342 48.9796C59.5494 48.9601 59.2872 48.6141 58.6038 48.1057L57.7981 47.3942L57.7177 46.8045L57.4957 45.9095L57.5761 45.3815L57.597 44.8942L58.221 42.9839C58.3416 42.5161 59.7713 41.4391 59.7713 41.4391L60.4355 40.9924H60.8584C60.8584 40.9924 61.3216 40.9111 61.603 40.9111C63.1324 40.9111 64.6827 41.8858 64.6827 42.5372V43.4923L63.4717 43.9179Z" fill="#1A1A1A"/>
  <path d="M68.2708 42.6797C69.5258 41.4447 71.0393 41.1367 71.0393 41.1367L71.6403 40.9111L72.6914 41.2273C73.4155 41.4447 73.7674 41.6324 74.3513 42.296C75.4008 43.4865 75.6094 46.6877 74.1115 48.1614C74.0539 48.2174 73.9838 48.2586 73.9277 48.3146L73.2753 48.8432L72.749 48.9107L72.0218 49.2038L71.5158 49.1116C71.5158 49.1116 68.8671 49.1577 68.0964 48.2833C66.9659 47.0038 67.5 43.4371 68.2708 42.6797ZM70.1144 47.2821L70.4274 47.3957L70.8602 47.2508L71.712 47.3414L72.3473 46.8836L72.9904 46.6169C72.9904 46.6169 74.2329 44.9142 73.0122 43.5261C72.3348 42.7571 70.5768 43.391 69.8933 44.0645C69.437 44.5141 68.8204 46.0208 69.4184 46.6992C69.4448 46.7288 69.4993 46.7601 69.5258 46.7898L70.1144 47.2821Z" fill="#1A1A1A"/>
  <path d="M87.2866 45.6352L87.2255 46.5085C87.2255 46.7669 87.3252 47.6196 87.3252 47.6196L86.8026 48.0554L86.4408 48.4517C86.4408 48.4517 85.0128 48.2535 85.0128 47.599V47.5784L85.053 47.0427L84.9517 46.4673L85.0723 45.4561V43.9489C85.0723 43.7904 84.8504 42.8378 84.0464 42.8378C83.4836 42.8378 82.8195 43.2737 82.6779 43.3529L82.3563 43.7095L81.6922 44.166C81.6118 44.3641 81.4301 44.7413 81.2291 44.9791C81.0683 45.2374 81.0683 45.7525 81.0683 46.1091C81.0683 47.0221 81.3095 46.9428 81.3095 47.7162C81.3095 48.2916 80.9075 49.2029 80.1228 49.2029C79.6806 49.2029 79.0566 48.4295 79.0566 48.4295L79.137 47.4785L79.0566 46.8239L79.1981 45.7525L79.0985 42.5589L79.2593 41.8647L79.2191 41.2101L79.441 40.9328L79.7819 40.3574C79.7819 40.3574 81.131 40.7743 81.1101 41.0722L81.0699 41.5683V41.6079C81.0699 41.7854 81.2114 41.8853 81.332 41.8853C81.3513 41.8853 81.3722 41.8853 81.3931 41.8647C81.6552 41.7458 81.8964 41.4288 81.8964 41.4288L82.3789 41.1309C82.5397 41.031 83.2649 40.6158 84.13 40.6158C84.9549 40.6158 85.6994 41.012 86.4842 41.9836C86.9875 42.5985 87.2287 43.1136 87.2287 43.391L87.2078 43.7476L87.3493 44.4418L87.2866 45.6352Z" fill="#1A1A1A"/>
  <path d="M23.2194 65.3339C23.2194 67.1829 21.8694 67.9996 20.3558 67.9996C19.4831 67.9996 18.5753 67.6991 17.8645 67.2584L18.1899 66.6451C18.6905 67.0103 19.5282 67.3324 20.3442 67.3324C21.4155 67.3324 22.4284 66.8485 22.4284 65.5588V64.8285C21.9979 65.3554 21.2987 65.6343 20.6011 65.6343C18.9358 65.6343 17.6909 64.3985 17.6909 62.9686C17.6909 61.5387 18.9475 60.2598 20.6128 60.2598C21.2536 60.2598 21.9394 60.4863 22.4284 60.9054V60.3892H23.2194V65.3339ZM22.4267 61.7544C22.0079 61.249 21.2736 60.927 20.6228 60.927C19.388 60.927 18.5036 61.8731 18.5036 62.927C18.5036 63.9918 19.3763 64.9687 20.6228 64.9687C21.322 64.9687 22.1013 64.5927 22.4267 63.9794V61.7544Z" fill="#1A1A1A"/>
  <path d="M29.0197 65.5221C28.4278 66.1282 27.7095 66.341 27.0057 66.341C25.8723 66.341 24.8779 65.7111 24.8779 64.6181C24.8779 63.1931 26.2874 62.6347 27.5976 62.6347C28.0127 62.6347 28.4404 62.6824 28.9945 62.8135V62.4934C28.9945 61.5315 28.491 60.9969 27.4208 60.9969C26.7025 60.9969 25.8976 61.2455 25.4193 61.4958L25.1306 60.7705C25.6973 60.5219 26.6538 60.2598 27.4605 60.2598C29.2868 60.2598 29.8535 61.1621 29.8535 62.6586V66.198H29.0847L29.0197 65.5221ZM27.5579 63.3004C26.7151 63.3004 25.7316 63.6205 25.7316 64.5245C25.7316 65.2259 26.3109 65.6771 27.0291 65.6771C27.7348 65.6771 28.4134 65.3332 28.9927 64.8105V63.469C28.4657 63.3481 28.0001 63.3004 27.5579 63.3004Z" fill="#1A1A1A"/>
  <path d="M34.676 61.363C34.3531 61.1144 33.9203 60.9476 33.4891 60.9476C33.0339 60.9476 32.4585 61.1978 32.4585 61.7426C32.4585 62.4321 33.2143 62.6569 33.9563 62.9667C34.676 63.2629 35.382 63.6681 35.382 64.7015C35.382 65.723 34.3033 66.341 33.3208 66.341C32.6612 66.341 31.9913 66.0806 31.5121 65.5579L32.0033 65.0472C32.3503 65.4149 32.7935 65.6532 33.3448 65.6532C33.9082 65.6532 34.5678 65.357 34.5678 64.6913C34.5678 64.0257 33.9443 63.789 33.2864 63.5268C32.5204 63.2187 31.6924 62.8731 31.6924 61.8158C31.6924 60.8182 32.5307 60.2598 33.5132 60.2598C34.1247 60.2598 34.664 60.4504 35.1192 60.8182L34.676 61.363Z" fill="#1A1A1A"/>
  <path d="M38.3209 60.736V63.8602C38.3209 64.8821 38.7221 65.0685 39.3248 65.0685C39.5667 65.0685 39.8335 65.0103 40.1291 64.9171L40.3576 65.5445C40.0639 65.6844 39.7011 65.7875 39.3133 65.7875C38.0406 65.7875 37.411 65.1251 37.411 63.9534V60.7377H36.4877V60.017H37.411V58.6006H38.3209V60.017H40.2232V60.7377H38.3209V60.736Z" fill="#1A1A1A"/>
  <path d="M42.7644 61.4105C43.0612 60.8129 43.579 60.2598 44.3288 60.2598C44.4725 60.2598 44.6256 60.2709 44.7803 60.3041L44.6809 61.1331C44.5151 61.0554 44.3841 61.0332 44.1741 61.0332C43.5569 61.0332 43.1496 61.4976 42.7644 62.1839V65.7882H42.0161V60.3929H42.7644V61.4105Z" fill="#1A1A1A"/>
  <path d="M50.8617 63.3004C50.8617 64.9876 49.726 66.341 48.0975 66.341C46.4673 66.341 45.3333 64.9876 45.3333 63.3004C45.3333 61.6132 46.4689 60.2598 48.0975 60.2598C49.7276 60.2598 50.8617 61.6149 50.8617 63.3004ZM48.0975 60.9969C46.8732 60.9969 46.1193 62.0899 46.1193 63.3004C46.1193 64.5126 46.8716 65.6039 48.0975 65.6039C49.3217 65.6039 50.0756 64.5109 50.0756 63.3004C50.0756 62.0899 49.3233 60.9969 48.0975 60.9969Z" fill="#1A1A1A"/>
  <path d="M53.311 61.2682C53.7415 60.6992 54.4407 60.398 55.1382 60.398C56.8036 60.398 58.0485 61.7325 58.0485 63.3465C58.0485 64.9605 56.7902 66.3416 55.1265 66.3416C54.4858 66.3416 53.7999 66.0987 53.311 65.6444V66.2018H52.52V57.4961H53.311V61.2682ZM53.311 64.7276C53.7298 65.2733 54.4641 65.6211 55.1149 65.6211C56.3497 65.6211 57.2341 64.5994 57.2341 63.3931C57.2341 62.1734 56.3614 61.1185 55.1149 61.1185C54.4157 61.1185 53.6364 61.5245 53.311 62.1867V64.7276Z" fill="#1A1A1A"/>
  <path d="M63.39 65.5221C62.8636 66.1282 62.2265 66.341 61.5991 66.341C60.5913 66.341 59.707 65.7111 59.707 64.6181C59.707 63.1931 60.9604 62.6347 62.1254 62.6347C62.4945 62.6347 62.8748 62.6824 63.3675 62.8135V62.4934C63.3675 61.5315 62.9198 60.9969 61.9682 60.9969C61.3295 60.9969 60.6137 61.2455 60.1885 61.4958L59.9317 60.7705C60.4356 60.5219 61.2861 60.2598 62.0035 60.2598C63.6275 60.2598 64.1298 61.1621 64.1298 62.6586V66.198H63.4461L63.39 65.5221ZM62.0901 63.3004C61.3407 63.3004 60.4661 63.6205 60.4661 64.5245C60.4661 65.2259 60.9812 65.6771 61.6199 65.6771C62.2474 65.6771 62.8508 65.3332 63.3659 64.8105V63.469C62.8973 63.3481 62.4833 63.3004 62.0901 63.3004Z" fill="#1A1A1A"/>
  <path d="M67.2391 61.4105C67.5953 60.8129 68.2166 60.2598 69.1165 60.2598C69.2888 60.2598 69.4726 60.2709 69.6582 60.3041L69.5389 61.1331C69.34 61.0554 69.1828 61.0332 68.9308 61.0332C68.1901 61.0332 67.7013 61.4976 67.2391 62.1839V65.7882H66.3412V60.3929H67.2391V61.4105Z" fill="#1A1A1A"/>
  <path d="M51.6719 13.7123C51.6672 13.6883 51.6592 13.6644 51.648 13.6405C51.6065 13.548 51.53 13.4682 51.4805 13.3789C51.4295 13.2895 51.388 13.1715 51.2971 13.1173C51.1455 13.0279 51.0147 12.9067 51.0546 12.8349C51.1088 12.736 51.0769 12.6546 51.0323 12.5541C50.9094 12.2798 50.6717 12.0692 50.4277 11.9033C50.3367 11.8427 50.2331 11.7916 50.1549 11.7151C50.04 11.605 50.0145 11.4742 49.9475 11.3354C49.8678 11.1711 49.7306 10.9908 49.5838 10.8792C49.5056 10.8201 49.4753 10.8201 49.3908 10.8297C49.3078 10.8393 49.3589 10.8728 49.2424 10.8473C49.1754 10.8313 49.1005 10.785 49.035 10.7627C48.7607 10.6702 48.5166 10.6367 48.2869 10.4389C48.1848 10.3496 48.1752 10.3224 48.1752 10.2092C48.1752 10.0991 48.1896 10.0816 48.0795 10.0146C47.9982 9.9651 47.9359 9.94915 47.8689 9.87258C47.7924 9.78485 47.7413 9.65404 47.6233 9.61097C47.451 9.54875 47.309 9.71625 47.1575 9.77368C47.0713 9.80558 46.9884 9.82153 46.9102 9.75932C46.7906 9.6652 46.8464 9.51844 46.797 9.39402C46.6933 9.13719 46.2769 9.12283 46.0504 9.1005C45.8733 9.08454 45.7298 9.04626 45.5623 8.9984C45.3485 8.93619 45.256 9.00159 45.055 9.04466C44.9561 9.0654 44.8699 9.07178 44.7934 8.99202C44.7327 8.92821 44.4935 8.98405 44.3658 9.01116C44.2781 9.03031 44.168 8.95693 44.0835 8.93938C43.9208 8.90588 43.9144 8.95055 43.8219 9.07019C43.7453 9.16749 43.3066 9.201 43.4311 9.40359C43.4821 9.48654 43.6576 9.48494 43.7421 9.51366C43.8649 9.55513 43.975 9.62054 44.0994 9.65882C44.235 9.6987 44.3786 9.75294 44.5174 9.77687C44.704 9.80877 44.8061 9.70987 44.9752 9.68754C45.0183 9.68275 45.0965 9.67797 45.1331 9.71625C45.1986 9.78325 45.1363 9.80239 45.1555 9.86461C45.181 9.95234 45.1906 9.95394 45.2991 10.0034C45.4953 10.0943 45.6325 10.1422 45.835 10.0672C46.044 9.98903 46.2546 10.0911 46.4348 10.2171C46.6087 10.34 46.5944 10.6016 46.8384 10.5888C46.9676 10.5825 47.0251 10.5777 47.1032 10.6925C47.1559 10.7707 47.1798 10.9206 47.2963 10.9318C47.4159 10.9446 47.4654 10.8377 47.6105 10.8871C47.7621 10.9382 47.9296 11.0275 48.0699 11.1073C48.2023 11.1823 48.2646 11.2365 48.2997 11.3817C48.3284 11.5013 48.3379 11.6225 48.448 11.7007C48.6793 11.8682 48.8564 11.5843 49.0813 11.6736C49.335 11.7741 49.1371 11.9719 49.2408 12.1506C49.2951 12.2447 49.4163 12.2973 49.4721 12.4026C49.5407 12.5318 49.5615 12.6834 49.6668 12.7918C49.7513 12.8796 49.8167 12.8891 49.93 12.8812C50.0033 12.8764 50.0289 12.8461 50.0895 12.8971C50.1469 12.9434 50.1453 13.0327 50.1772 13.0949C50.249 13.2401 50.4022 13.3438 50.4309 13.5065C50.4596 13.6628 50.4229 13.7314 50.5154 13.8766C50.3958 13.9563 50.249 13.8957 50.1565 14.0393C50.0703 14.1717 50.1054 14.3743 50.1533 14.5131C50.1884 14.62 50.3033 14.8002 50.1693 14.8864C50.0656 14.9534 49.9172 14.8544 49.8055 14.8848C49.6987 14.9135 49.6859 15.0156 49.6029 15.0858C49.4945 15.1767 49.4067 15.1926 49.3302 15.3203C49.2424 15.467 49.1164 15.542 48.9776 15.6393C48.8085 15.7573 48.6554 15.8897 48.4943 16.0158C48.3523 16.1274 48.1896 16.2088 48.054 16.3284C47.928 16.4401 47.8323 16.5884 47.6791 16.6666C47.5244 16.7448 47.3202 16.7129 47.1766 16.815C47.041 16.9123 47.0235 17.0909 46.9198 17.2138C46.8273 17.3223 46.7667 17.2521 46.6486 17.2106C46.4731 17.1484 46.3296 17.1627 46.1876 17.284C46.0488 17.4036 45.9563 17.5105 45.7744 17.5695C45.65 17.611 45.4155 17.6955 45.2863 17.6429C45.2703 17.5695 45.3198 17.4961 45.2608 17.4355C45.2033 17.3749 45.0646 17.4068 44.996 17.4291C44.8763 17.469 44.7934 17.5424 44.6721 17.5775C44.5812 17.603 44.5605 17.6301 44.5046 17.7067C44.369 17.8901 44.2606 17.8901 44.042 17.8678C43.9463 17.8582 43.865 17.8582 43.8043 17.7769C43.7278 17.6748 43.7485 17.5344 43.5842 17.528C43.4582 17.5232 43.3593 17.6285 43.2285 17.6253C43.0865 17.6206 43.0003 17.5647 42.8663 17.6461C42.7802 17.6987 42.7355 17.753 42.6271 17.7593C42.5313 17.7657 42.4085 17.7498 42.3176 17.7163C42.1246 17.6445 42.0911 17.3924 41.8614 17.3988C41.7593 17.402 41.6524 17.4594 41.571 17.5153C41.4721 17.5839 41.4354 17.6812 41.3541 17.7593C41.2153 17.7482 41.0797 17.5759 40.9872 17.485C40.8707 17.3717 40.7415 17.2377 40.582 17.1867C40.3858 17.1244 40.365 17.2632 40.2263 17.327C40.0189 17.4227 40.0939 17.1244 40.0269 17.0208C39.9503 16.8995 39.8306 16.941 39.7174 16.8931C39.5499 16.8229 39.4765 16.6921 39.2851 16.6586C39.2229 16.6475 39.1128 16.657 39.0697 16.5948C39.0426 16.555 39.0761 16.4608 39.0522 16.4321C38.9979 16.3699 38.9022 16.4002 38.8209 16.3843C38.5353 16.3284 38.3232 16.0285 38.0249 16.019C37.8701 16.0142 37.859 15.9823 37.7489 15.8674C37.6468 15.7605 37.4984 15.7063 37.3788 15.6154C37.2576 15.5228 37.1395 15.4255 37.0598 15.2931C37.0263 15.2357 36.98 15.1543 36.9704 15.0858C36.9608 15.0092 37.0055 14.9486 36.9975 14.8752C36.9832 14.7348 36.5381 14.5753 36.4584 14.4732C36.519 14.3216 36.5892 14.3057 36.4568 14.1526C36.3738 14.0568 36.2605 13.9914 36.1696 13.9053C36.0213 13.7633 36.0005 13.6421 36.168 13.5049C36.3275 13.3757 36.3084 13.2066 36.4009 13.0391C36.4934 12.8684 36.6402 12.9147 36.7838 12.8253C36.9258 12.736 36.9066 12.5286 37.0374 12.4377C37.1443 12.3643 37.2911 12.4233 37.4139 12.35C37.575 12.2542 37.658 12.0708 37.8047 11.9591C37.9307 11.8618 38.1397 11.8459 38.2195 11.6959C38.3056 11.5348 38.1892 11.3354 38.312 11.1791C38.4348 11.0211 38.698 11.0674 38.8703 11.069C39.0697 11.0706 39.2356 11.0546 39.4207 10.9797C39.5515 10.9254 39.6903 10.8712 39.7557 10.7404C39.8259 10.6016 39.8147 10.4309 40.0205 10.5139C40.1529 10.5665 40.2518 10.6957 40.3874 10.5665C40.5006 10.4612 40.4719 10.2778 40.5628 10.1629C40.5549 10.2746 40.507 10.4277 40.6697 10.391C40.7319 10.3767 40.7878 10.2969 40.8468 10.2698C40.9058 10.2427 40.9904 10.2363 41.051 10.2347C41.1658 10.2315 41.4306 10.2778 41.5216 10.1645C41.5966 10.072 41.5088 9.98425 41.52 9.88215C41.5471 9.61735 41.8071 10.0002 41.8821 10.0481C42.174 10.2395 42.1948 9.90768 42.4181 9.82313C42.5106 9.78803 42.6398 9.76251 42.6941 9.8678C42.7323 9.94437 42.8281 9.7322 42.8663 9.65882C42.8998 9.59501 43.0035 9.61735 43.053 9.58225C43.1008 9.54716 43.0897 9.54397 43.1216 9.49452C43.1934 9.37806 43.2636 9.26959 43.1487 9.17228C43.053 9.09252 42.9174 9.08454 42.8488 8.9665C42.8169 8.91226 42.651 8.8325 42.6318 8.87557C42.5983 8.95055 42.5648 8.97766 42.4931 9.01755C42.3639 9.08933 42.2059 9.16431 42.064 9.20419C41.8725 9.25683 41.6588 9.22333 41.461 9.25842C41.2982 9.28714 41.1307 9.32702 40.9648 9.33021C40.8021 9.3334 40.6394 9.2664 40.4783 9.29352C40.3507 9.31426 40.2821 9.39561 40.1784 9.46261C40.0364 9.55513 40.0093 9.48335 39.8865 9.44347C39.77 9.40678 39.703 9.4674 39.6137 9.5328C39.4925 9.62213 39.3664 9.67796 39.2324 9.74815C38.9373 9.90289 38.6454 10.0975 38.4173 10.3432C38.3423 10.4245 38.2944 10.474 38.178 10.4788C38.0903 10.482 37.8956 10.6558 37.8542 10.7563C37.8127 10.8584 37.6276 10.9206 37.5367 10.9557C37.3262 11.0355 37.0837 11.0642 36.9162 11.2285C36.8268 11.3163 36.771 11.4279 36.7487 11.5508C36.7279 11.6752 36.7774 11.8172 36.7216 11.9352C36.6562 12.0756 36.4647 12.141 36.3531 12.2415C36.2542 12.3308 36.1951 12.4345 36.0739 12.4999C35.9351 12.5749 35.6958 12.6084 35.6288 12.7743C35.5922 12.8684 35.632 12.9992 35.6288 13.0965C35.6257 13.2018 35.6033 13.3055 35.573 13.406C35.5252 13.5591 35.4071 13.6979 35.3768 13.8542C35.3146 14.1589 35.6304 14.5115 35.7676 14.7603C35.8394 14.8911 35.9271 15.0092 36.0133 15.1304C36.0532 15.1878 36.1329 15.2692 36.1473 15.3378C36.1776 15.483 36.2159 15.6935 36.3036 15.7175C36.444 15.7557 36.5477 15.7717 36.6673 15.8626C36.7678 15.9392 36.8492 16.0668 36.9816 16.0907C37.0917 16.1099 37.2193 16.0142 37.248 16.1737C37.2767 16.3396 37.3134 16.8772 37.4314 16.8884C37.508 16.8947 37.5638 16.8389 37.6372 16.8421C37.7345 16.8469 37.7425 16.9107 37.8159 16.9665C37.8653 17.0032 37.9387 17.008 37.985 17.0431C38.0584 17.1005 38.0312 17.1292 38.0839 17.1851C38.1381 17.2441 38.2418 17.2425 38.3056 17.3015C38.4715 17.4547 39.0075 17.6684 39.1272 17.7785C39.2277 17.871 39.6025 18.0257 39.727 17.9843C39.9152 17.9205 40.0827 17.954 40.2677 18.0162C40.4161 18.0656 40.5676 18.1183 40.7064 18.1916C40.858 18.2714 40.9553 18.3879 41.0797 18.5011C41.3557 18.7516 41.6301 18.6798 41.9682 18.6224C42.0815 18.6032 42.0783 18.5793 42.1644 18.6543C42.2187 18.7005 42.2362 18.7755 42.3032 18.8202C42.4261 18.9031 42.9317 18.8202 42.9956 18.7308C43.0626 18.6351 43.0163 18.6399 43.1359 18.6128C43.2109 18.5968 43.3417 18.6144 43.4151 18.6255C43.589 18.6527 43.7182 18.7308 43.9 18.7069C44.0548 18.6862 44.1888 18.6271 44.3435 18.6814C44.4839 18.7308 44.5318 18.7611 44.6849 18.7005C44.8317 18.6431 44.9672 18.525 45.1347 18.541C45.2671 18.5538 45.5511 18.5362 45.6133 18.4533C45.6245 18.4373 46.0727 18.3464 46.0951 18.3512C46.1732 18.3703 46.2147 18.2188 46.4061 18.1438C46.5274 18.0959 46.7332 18.0497 46.8576 18.0576C46.9772 18.0656 47.0442 18.123 47.1639 18.0624C47.2325 18.0289 47.2787 17.9603 47.3314 17.9093C47.5579 17.686 47.8642 17.603 48.1066 17.3749C48.1545 17.4148 48.2438 17.485 48.3108 17.4786C48.4113 17.469 48.5326 17.3829 48.6155 17.3286C48.7112 17.2648 48.7862 17.1978 48.8229 17.0846C48.8691 16.9426 49.3637 16.5565 49.5487 16.4624C49.7944 16.3396 50.1214 16.0349 50.2012 15.7669C50.2634 15.5595 50.3734 15.3745 50.4803 15.1815C50.5425 15.0666 50.5888 15.006 50.7212 14.99C50.852 14.9741 50.9413 14.9773 51.053 14.8975C51.2333 14.7667 51.3385 14.553 51.439 14.3599C51.5443 14.1653 51.7198 13.9372 51.6719 13.7123ZM50.7276 13.8973C50.7276 13.8989 50.726 13.8989 50.726 13.9005C50.7244 13.8989 50.7244 13.8989 50.7228 13.8973C50.726 13.8989 50.7276 13.8989 50.7276 13.8973ZM50.1054 12.7583C50.1054 12.7551 50.1054 12.752 50.1054 12.7472L50.1581 12.7089L50.1118 12.7599C50.1102 12.7615 50.1086 12.7599 50.1054 12.7583ZM46.9932 17.8136C46.9836 17.8247 46.974 17.8375 46.9645 17.8471C46.9517 17.8614 46.9405 17.8742 46.931 17.887C46.9278 17.8694 46.9198 17.8535 46.9086 17.8407C46.9421 17.8279 46.9692 17.82 46.9932 17.8136Z" fill="#191919"/>
  <path d="M43.1997 4.2567L43.1534 6.94624C43.1518 7.07545 43.1486 7.20466 43.147 7.33388C43.1391 7.80606 43.8729 7.80606 43.8808 7.33388C43.8968 6.43737 43.9127 5.54085 43.9271 4.64434C43.9287 4.51513 43.9319 4.38591 43.9335 4.2567C43.9415 3.78292 43.2077 3.78292 43.1997 4.2567Z" fill="#191919"/>
  <path d="M49.1482 5.42375C48.7558 6.22934 48.3618 7.03652 47.9693 7.8421C47.9135 7.95696 47.8561 8.07341 47.8002 8.18986C47.7141 8.36853 47.7524 8.58707 47.9327 8.69235C48.0938 8.78647 48.3474 8.74021 48.4351 8.55995C48.8276 7.75437 49.2216 6.94719 49.614 6.1416C49.6698 6.02515 49.7273 5.91029 49.7831 5.79384C49.8692 5.61518 49.831 5.39663 49.6507 5.29135C49.4896 5.19723 49.2359 5.24509 49.1482 5.42375Z" fill="#191919"/>
  <path d="M37.3738 5.77167C37.7391 6.59161 38.1044 7.41155 38.4681 8.2299C38.5208 8.34635 38.5718 8.46439 38.6245 8.58244C38.7058 8.76429 38.969 8.80577 39.127 8.71484C39.3136 8.60637 39.3391 8.3942 39.2594 8.21235C38.8941 7.39241 38.5288 6.57246 38.1651 5.75412C38.1124 5.63607 38.0614 5.51962 38.0087 5.40157C37.9274 5.21972 37.6642 5.17824 37.5062 5.26917C37.318 5.37765 37.2925 5.58981 37.3738 5.77167Z" fill="#191919"/>
  <path d="M43.9622 22.0437V20.4294V20.2012C43.9622 20.0098 43.7931 19.8248 43.5953 19.8343C43.3959 19.8423 43.2284 19.9955 43.2284 20.2012V21.8156V22.0437C43.2284 22.2351 43.3975 22.4202 43.5953 22.4106C43.7947 22.4026 43.9622 22.2495 43.9622 22.0437Z" fill="#191919"/>
  <path d="M49.2935 20.8428C49.0574 20.3595 48.8229 19.8777 48.5868 19.3944C48.5533 19.3258 48.5198 19.2556 48.4847 19.187C48.4001 19.0131 48.1401 18.9525 47.9822 19.0546C47.8051 19.1694 47.7604 19.372 47.8498 19.5571C48.0859 20.0404 48.3204 20.5222 48.5565 21.0055C48.59 21.0741 48.6235 21.1443 48.6586 21.2129C48.7431 21.3868 49.0031 21.4474 49.161 21.3453C49.3397 21.2305 49.3844 21.0279 49.2935 20.8428Z" fill="#191919"/>
  <path d="M38.4762 21.2287C38.6947 20.7373 38.9133 20.246 39.1318 19.7563C39.1637 19.6861 39.194 19.6159 39.2259 19.5457C39.3041 19.3702 39.2834 19.1421 39.0935 19.0432C38.934 18.9587 38.674 18.9874 38.591 19.1756C38.3725 19.6669 38.1539 20.1583 37.9354 20.648C37.9035 20.7182 37.8732 20.7884 37.8413 20.8586C37.7631 21.034 37.7855 21.2622 37.9737 21.3611C38.1332 21.444 38.3916 21.4153 38.4762 21.2287Z" fill="#191919"/>
  <path d="M47.368 13.7862C47.368 16.0163 45.5606 17.8253 43.3289 17.8253C41.0988 17.8253 39.2898 16.0179 39.2898 13.7862C39.2898 11.5545 41.0972 9.74707 43.3289 9.74707C45.559 9.74867 47.368 11.556 47.368 13.7862Z" fill="#191919"/>
  <path d="M57.7273 15.5942C57.6379 15.3964 57.8469 15.189 57.756 15.004C57.7145 14.9194 57.6044 14.8987 57.555 14.811C57.5263 14.7599 57.563 14.6116 57.4497 14.6243C57.2519 14.6466 57.3077 15.0901 57.2567 15.2082C57.1498 15.4538 56.9281 15.3294 56.802 15.4857C56.6712 15.6468 56.968 15.6979 57.0078 15.8143C57.0461 15.9244 56.9424 16.0552 56.9137 16.1509C56.8675 16.3073 56.8547 16.4445 56.8515 16.6072C56.8451 16.9422 56.751 17.1655 56.5707 17.4415C56.4128 17.6823 56.3251 17.9535 56.1703 18.1944C56.0076 18.4496 55.7795 18.6698 55.6072 18.9234C55.4286 19.1882 55.1781 19.3238 54.9516 19.5392C54.7426 19.737 54.6102 19.9795 54.4635 20.2219C54.3949 20.3352 54.3167 20.474 54.1891 20.533C54.0934 20.5777 53.9785 20.5537 53.8812 20.592C53.6164 20.6989 53.6531 20.9398 53.4968 21.1248C53.4026 21.2365 53.3229 21.2094 53.2096 21.2764C53.1043 21.3386 53.0597 21.4247 52.9847 21.5173C52.6034 21.9894 52.1153 22.3675 51.6798 22.7854C51.4724 22.9849 51.2969 23.2927 51.0353 23.4251C50.8471 23.5192 50.4658 23.4283 50.3271 23.5926C50.2042 23.7378 50.3494 23.8989 50.1596 24.0425C49.949 24.2004 49.6603 24.2467 49.4513 24.4142C49.3683 24.4812 49.3045 24.6152 49.2152 24.6678C49.1195 24.7236 49.011 24.7045 48.9057 24.7236C48.6138 24.7795 48.3793 24.939 48.1512 25.124C47.7284 25.467 47.5402 26.0062 47.0234 26.212C46.5209 26.4114 46.0327 26.8006 45.492 26.8756C45.1968 26.9171 44.9815 26.9155 44.7039 27.0463C44.4582 27.1611 44.2939 27.2792 44.144 27.5121C43.9765 27.7705 43.8441 27.9731 43.4947 27.8646C43.2236 27.7801 43.0289 27.5185 42.7992 27.3653C42.5552 27.2042 42.276 27.1005 42.0239 26.9522C41.748 26.7894 41.4911 26.5964 41.2279 26.413C40.9583 26.2263 40.6824 26.0429 40.3889 25.8977C40.3314 25.869 40.1145 25.8132 40.0969 25.727C40.0794 25.6393 39.8289 25.3968 39.679 25.3665C39.3679 25.3059 39.0824 25.1512 38.8223 24.9773C38.5671 24.8082 38.4188 24.671 38.1045 24.6582C37.7775 24.6455 37.6786 24.5354 37.6291 24.2211C37.5829 23.9276 37.5765 23.8096 37.3356 23.6166C37.2558 23.5527 37.1713 23.465 37.082 23.4156C36.9033 23.3183 36.8299 23.3725 36.6497 23.3693C36.4088 23.3645 36.3003 23.0933 36.1089 22.9689C35.9988 22.8971 35.8568 22.8748 35.7611 22.7807C35.6638 22.6865 35.6495 22.5446 35.549 22.4505C35.4564 22.3659 35.3336 22.3516 35.2475 22.2526C35.1852 22.1809 35.1645 22.0931 35.1198 22.0134C34.9699 21.7454 34.7912 21.4869 34.5184 21.329C34.2616 21.1807 34.0016 21.1551 33.8102 20.9063C33.6554 20.7037 33.5916 20.4421 33.4162 20.2538C33.2503 20.0784 33.078 20.0736 32.869 19.9954C32.6106 19.8997 32.3952 19.6429 32.2134 19.4419C31.998 19.2026 31.8784 18.9043 31.7013 18.6379C31.5322 18.3811 31.3918 18.188 31.3328 17.877C31.2849 17.6233 31.2211 17.3856 31.1541 17.1384C31.1127 16.99 31.0999 16.8353 31.0233 16.6981C30.9244 16.5194 30.7952 16.395 30.7123 16.202C30.6054 15.9515 30.457 15.7234 30.5304 15.457C30.5655 15.331 30.6181 15.2528 30.6325 15.1188C30.6484 14.9577 30.6181 14.7775 30.6086 14.6179C30.5974 14.4441 30.6357 14.117 30.5368 13.9543C30.473 13.8506 30.3677 13.8857 30.3087 13.8139C30.2098 13.6943 30.3454 13.5587 30.3693 13.4215C30.3932 13.278 30.3485 13.128 30.3629 12.9828C30.3773 12.8409 30.4251 12.7132 30.4682 12.5792C30.5623 12.2857 30.6261 12.0034 30.6692 11.6971C30.6883 11.5567 30.6644 11.2137 30.7426 11.0813C30.7984 10.9856 30.8606 11.0255 30.9276 10.9649C31.0648 10.8436 31.052 10.7065 31.0632 10.523C31.0808 10.2119 31.1222 9.89609 31.2419 9.60576C31.3631 9.31224 31.5721 9.20855 31.7571 8.97884C31.7811 8.95012 31.7141 8.7571 31.6806 8.69489C31.5944 8.53377 31.8688 8.3902 31.9629 8.26737C32.0506 8.15252 32.1081 8.02649 32.148 7.88771C32.1703 7.80954 32.1591 7.66597 32.2277 7.60536C32.3521 7.49529 32.4558 7.37086 32.4335 7.29429C32.3633 7.05182 32.7366 6.81413 32.8658 6.65142C32.9966 6.48711 33.0333 6.29887 33.2231 6.2223C33.4385 6.13456 33.6012 6.04204 33.7384 5.8235C33.8421 5.65919 33.8373 5.46776 33.9553 5.31462C34.134 5.08332 34.386 4.90306 34.6221 4.74034C34.729 4.66696 34.8215 4.60794 34.8997 4.50106C34.9731 4.40056 34.9906 4.17883 35.0879 4.10385C35.2826 3.9539 35.2044 4.15969 35.4006 4.18521C35.5745 4.20914 35.726 3.97145 35.8361 3.87414C36.0961 3.64283 36.4024 3.55988 36.5125 3.21851C36.6225 2.87713 37.082 2.5549 37.4409 2.49587C37.7009 2.4544 37.9514 2.43206 38.2034 2.34273C38.5703 2.21192 38.9165 2.02688 39.2802 1.8849C39.5115 1.79398 39.8624 1.78281 40.0347 1.59777C40.1161 1.51003 40.0905 1.46696 40.2134 1.41432C40.3075 1.37443 40.4383 1.40474 40.5388 1.3872C40.8068 1.34253 41.0572 1.17982 41.3157 1.09368C41.4417 1.0522 41.5853 0.994773 41.7209 1.00594C41.9123 1.0203 41.9761 1.13675 42.134 1.21172C42.3781 1.32817 42.6732 1.24363 42.93 1.22129C43.222 1.19737 43.5155 1.21491 43.8058 1.17184C44.128 1.12399 44.3881 1.14951 44.7119 1.17344C44.8491 1.1846 45.4074 1.32817 45.4983 1.19737C45.5988 1.0522 46.0742 1.41751 46.3613 1.52119C46.6262 1.61691 46.9276 1.59936 47.1988 1.68869C47.7125 1.85619 48.2453 1.91202 48.7542 2.08909C49.0509 2.19119 49.2168 2.3188 49.4481 2.52299C49.7225 2.76387 50.0734 2.87234 50.3622 3.09248C50.4499 3.15948 50.5759 3.32539 50.694 3.34134C50.8056 3.3557 50.8822 3.25679 50.9955 3.27912C51.0912 3.29827 51.1358 3.38281 51.2044 3.44024C51.3017 3.51841 51.3655 3.53755 51.4932 3.56307C51.7707 3.61891 51.9239 3.75769 52.1632 3.90126C52.4439 4.07195 52.6146 4.2873 52.8619 4.49149C52.9352 4.55211 53.0804 4.60794 53.1299 4.69089C53.2144 4.83127 53.1251 4.82011 53.1235 4.95889C53.1203 5.21891 53.3947 5.2875 53.5366 5.46936C53.693 5.66876 53.7249 5.93197 53.8796 6.13297C54.0934 6.41054 54.4028 6.37704 54.6692 6.5573C54.8351 6.66896 55.1446 7.00874 55.1271 7.2225C55.1079 7.4586 54.9516 7.51443 55.0537 7.78402C55.1446 8.02649 55.3344 8.24504 55.47 8.46358C55.6583 8.76348 55.805 9.0905 55.9757 9.40157C56.1305 9.68392 56.1783 9.96468 56.2804 10.2646C56.3586 10.4927 56.5452 10.6123 56.6537 10.8165C56.8068 11.1037 56.6649 11.3414 56.6553 11.6333C56.6441 11.997 56.893 11.8582 57.0286 12.1071C57.1339 12.3001 56.9951 12.5792 57.0014 12.7802C57.0078 13.0275 57.1402 13.1328 57.2439 13.337C57.3444 13.5348 57.2854 13.865 57.4545 14.0261C57.764 14.3196 57.673 13.6034 57.6571 13.4726C57.6252 13.2173 57.74 13.0514 57.7592 12.809C57.7767 12.5761 57.6858 12.3352 57.6698 12.1007C57.6507 11.8119 57.6778 11.5152 57.5805 11.2377C57.4736 10.9346 57.2328 10.732 57.1482 10.4161C57.1259 10.3332 57.0653 10.1577 57.0732 10.0732C57.0844 9.94713 57.1067 9.99499 57.1562 9.91683C57.2024 9.84345 57.2328 9.90247 57.2551 9.78123C57.2742 9.67435 57.1418 9.526 57.1019 9.43826C56.9999 9.21812 56.9791 8.95651 56.8531 8.74913C56.7095 8.50984 56.475 8.39499 56.3506 8.13337C56.1145 7.63566 55.8162 7.14593 55.6966 6.60675C55.6232 6.27175 55.5067 6.21592 55.2659 6.01811C55.0361 5.82988 54.8431 5.48372 54.7315 5.21253C54.6533 5.0227 54.6517 4.83925 54.4395 4.78182C54.3263 4.75151 54.2657 4.79937 54.1572 4.72599C54.0774 4.67175 54.0184 4.5553 53.9562 4.48351C53.5494 4.01452 52.9528 3.76248 52.5492 3.29986C52.219 2.92339 52.0786 2.38421 51.4868 2.31561C51.3113 2.29488 51.3225 2.35868 51.1869 2.39856C51.0529 2.43845 51.1151 2.44004 50.9556 2.38102C50.6445 2.26297 50.3972 2.18959 50.2058 1.90086C50.0543 1.67115 50.0128 1.5531 49.7432 1.44781C49.4369 1.32658 49.1849 1.21172 48.9025 1.03465C48.6601 0.881512 48.3841 0.742729 48.1049 0.670944C48.0028 0.643825 47.8369 0.587992 47.7316 0.64542C47.6295 0.702848 47.6279 0.854394 47.5051 0.871941C47.4094 0.886298 47.1621 0.654992 47.076 0.616706C46.8096 0.497065 46.5065 0.471541 46.221 0.423685C45.8971 0.369447 45.5909 0.281711 45.2766 0.187593C45.0182 0.111022 44.5875 -0.0612613 44.3274 0.0918796C44.1727 0.182807 44.1568 0.379019 43.943 0.334353C43.8361 0.31202 43.7117 0.170045 43.6064 0.125379C43.474 0.0711419 43.3145 0.0488087 43.1741 0.0264757C42.8455 -0.0261665 42.5376 -0.00383335 42.2297 0.125379C41.9139 0.256187 41.681 0.573635 41.346 0.647015C41.1274 0.694872 40.9025 0.624682 40.6888 0.586397C40.3617 0.527374 40.2229 0.639039 39.9199 0.723586C39.7635 0.766657 39.6231 0.726776 39.4668 0.742728C39.3105 0.758681 39.2052 0.838441 39.0744 0.911821C38.733 1.10484 38.339 1.1846 37.9721 1.31701C36.7693 1.7525 35.6415 2.47833 34.7657 3.40674C34.3621 3.83426 33.7336 3.94114 33.456 4.49309C33.3332 4.73875 33.2327 5.00675 33.1019 5.24603C32.9535 5.51881 32.6951 5.46138 32.467 5.62888C32.25 5.7884 32.073 6.03088 31.9725 6.27813C31.8544 6.57006 31.722 6.83327 31.5769 7.11243C31.4221 7.40914 31.2658 7.70266 31.1015 7.99299C31.0185 8.13816 30.9547 8.46199 30.8096 8.55132C30.7761 8.43965 30.2002 9.40317 30.1348 9.63128C30.0949 9.77166 30.0582 9.88811 30.0598 10.0365C30.0614 10.1816 30.1236 10.3204 30.1268 10.4656C30.1364 10.8117 29.9226 11.0909 29.8397 11.4163C29.7775 11.6652 29.7695 11.8502 29.5812 12.0385C29.342 12.2777 29.2989 12.4261 29.3452 12.7611C29.385 13.0435 29.3914 13.2381 29.3164 13.5156C29.2622 13.7182 29.2367 13.8283 29.3053 14.0309C29.3452 14.1505 29.4122 14.251 29.4361 14.3787C29.5031 14.7328 29.468 15.1045 29.5286 15.4634C29.5573 15.6341 29.6498 15.8463 29.6243 16.0201C29.6036 16.1557 29.4903 16.2514 29.4807 16.3902C29.4616 16.6582 29.6993 17.0586 29.8652 17.2453C29.9641 17.3553 30.2034 17.6616 30.3613 17.6393C30.4363 17.6297 30.4012 17.534 30.4905 17.5547C30.599 17.5787 30.5432 17.9328 30.5495 18.0046C30.5815 18.3268 30.7872 18.673 30.9212 18.9681C31.0058 19.1547 31.0983 19.3382 31.1956 19.5184C31.2817 19.6764 31.3759 19.8646 31.5099 19.989C31.671 20.1374 31.679 20.0576 31.8273 19.9555C31.9119 20.0161 31.9501 20.1182 32.0299 20.1884C32.1192 20.2666 32.2995 20.3192 32.3218 20.4564C32.3505 20.6239 32.2102 20.7005 32.2788 20.8871C32.333 21.0339 32.4606 21.1647 32.585 21.2509C32.7095 21.3354 32.8307 21.3705 32.928 21.4901C33.0317 21.6178 33.0955 21.7709 33.2056 21.8969C33.3188 22.0261 33.4624 22.1314 33.606 22.2271C33.7671 22.3356 34.0144 22.4122 34.15 22.5541C34.319 22.728 34.1531 23.0088 34.4195 23.0933C34.5153 23.1236 34.6221 23.0949 34.7178 23.1284C34.8869 23.1858 34.9236 23.3198 35.0193 23.4507C35.2347 23.7426 35.6558 23.8415 35.9494 24.0441C36.0706 24.127 36.2014 24.2881 36.3466 24.3137C36.4901 24.3392 36.5428 24.2435 36.6752 24.3631C36.8028 24.4764 36.8746 24.6088 37.0229 24.7029C37.1713 24.797 37.3404 24.8544 37.4935 24.939C37.6339 25.0172 37.7551 25.1161 37.8844 25.207C38.0822 25.3458 38.3087 25.4319 38.5097 25.5627C38.7761 25.7366 39.0856 25.9695 39.3121 26.1912C39.4158 26.2933 39.4349 26.4018 39.5115 26.5135C39.612 26.6602 39.7492 26.6778 39.9167 26.6874C40.0794 26.6985 40.2261 26.673 40.3665 26.7719C40.5005 26.8676 40.5292 26.9713 40.7063 27.0208C40.8212 27.0527 40.9424 27.016 40.9679 27.15C40.995 27.2887 40.8961 27.3254 41.0365 27.4451C41.2614 27.6349 41.6714 27.6907 41.9378 27.82C42.3366 28.013 42.729 28.1629 43.147 28.3065C43.5633 28.4501 43.7867 28.4644 44.203 28.3081C44.3546 28.2507 44.5316 28.2251 44.6784 28.1597C44.8555 28.0816 44.7677 28.0337 44.8443 27.8997C44.9177 27.7705 45.0325 27.8216 45.1681 27.7881C45.3133 27.7514 45.4138 27.6493 45.5382 27.5695C45.8748 27.3526 46.2545 27.4164 46.5942 27.2313C46.8957 27.0686 47.1191 26.7512 47.4285 26.6092C47.5753 26.5422 47.6503 26.6028 47.8034 26.6076C48.0156 26.6156 48.1911 26.4545 48.3617 26.3428C48.6872 26.129 48.9839 25.8626 49.33 25.684C49.6268 25.5308 50.0431 25.4207 50.2313 25.124C50.3063 25.006 50.3366 24.8656 50.4116 24.7476C50.4977 24.6136 50.6222 24.4987 50.7322 24.3839C50.8455 24.2658 50.9572 24.1494 51.1023 24.0712C51.3033 23.9659 51.5362 23.9579 51.7452 23.8734C51.9143 23.8048 51.9526 23.6899 52.085 23.5974C52.1982 23.5177 52.2637 23.5815 52.4008 23.5575C52.7103 23.5017 52.956 23.1061 53.1809 22.9131C53.3293 22.7854 53.5063 22.6818 53.6292 22.527C53.7313 22.3978 53.7807 22.2367 53.8748 22.1027C54.0726 21.8235 54.4012 21.7948 54.6597 21.6002C54.8878 21.4263 55.0776 21.0626 55.1047 20.7771C55.1111 20.718 55.1861 20.6191 55.202 20.7005C55.2563 20.9653 55.5227 20.5314 55.5705 20.4532C55.7859 20.1119 56.0459 19.8295 56.3139 19.5312C56.432 19.3988 56.9073 18.9809 56.7765 18.7655C56.7143 18.6634 56.6617 18.2646 56.7845 18.2104C56.9999 18.1162 57.1035 18.1115 57.2726 17.9168C57.405 17.7653 57.5151 17.6042 57.5358 17.4C57.5566 17.199 57.5135 17.014 57.5534 16.8114C57.5949 16.6008 57.6427 16.3838 57.6938 16.1749C57.748 16.009 57.8294 15.5942 57.7273 15.5942ZM40.735 1.07932C40.7286 1.07453 40.7222 1.06975 40.7159 1.06496C40.7398 1.06975 40.7557 1.0857 40.7749 1.11282C40.7621 1.10006 40.7494 1.09049 40.735 1.07932ZM33.1928 6.08192C33.1896 6.07076 33.1848 6.06118 33.1801 6.0548C33.1673 6.03566 33.1482 6.02609 33.1306 6.01971C33.1801 5.95909 33.2471 5.87933 33.3125 5.80914C33.3157 5.80595 33.3188 5.80276 33.3236 5.79957L33.3045 5.83626C33.2471 5.95431 33.212 6.02928 33.1928 6.08192Z" fill="#191919"/>
  <path d="M52.9066 33.9206C52.9385 33.8281 52.629 33.6367 52.5126 33.651C52.2893 33.6781 52.1218 33.525 51.967 33.3798C51.8011 33.2219 51.6528 33.0464 51.5156 32.863C51.3656 32.6636 51.238 32.5679 50.986 32.5312C50.8217 32.5073 50.6031 32.5041 50.5106 32.3382C50.4723 32.2696 50.2538 32.1164 50.166 32.1132C49.9746 32.1053 49.973 31.8149 49.7816 31.7703C49.5933 31.7256 49.3812 31.8644 49.2121 31.724C49.0558 31.5948 49.0813 31.3061 48.8962 31.2103C48.6873 31.1003 48.4895 31.3651 48.2916 31.1784C48.1162 31.0125 47.979 30.7573 47.8498 30.5579C47.7876 30.4622 47.711 30.3122 47.6009 30.266C47.4829 30.2165 47.3425 30.2644 47.2228 30.2883C47.0825 30.3154 47.0075 29.9916 46.9788 29.8975C46.9405 29.7683 46.7921 29.7826 46.6853 29.773C46.3949 29.7491 46.3758 29.5657 46.178 29.4014C45.9929 29.2466 45.6739 29.178 45.4362 29.1701C45.2352 29.1637 45.0502 29.1589 44.9497 28.9595C44.9002 28.8606 44.9002 28.7393 44.8268 28.6516C44.7327 28.5368 44.586 28.5559 44.4647 28.4953C44.2956 28.4107 44.2302 28.2097 44.0595 28.1252C43.8506 28.0215 43.4868 28.071 43.2683 28.1236C43.1614 28.1491 43.0801 28.2081 42.9828 28.2528C42.8807 28.2991 42.7722 28.3182 42.6669 28.3549C42.434 28.4347 42.2234 28.5527 42.024 28.6899C41.8837 28.7872 41.6874 28.6213 41.6619 28.8223C41.6492 28.9244 41.6986 28.9978 41.6045 29.0727C41.5247 29.1382 41.3828 29.1254 41.2918 29.1796C41.1897 29.2418 41.1179 29.3328 41.0063 29.3822C40.885 29.4349 40.751 29.4253 40.6298 29.4716C40.357 29.5752 40.5134 29.8831 40.2852 30.0123C40.1114 30.1112 39.904 30.0777 39.7461 30.2197C39.577 30.3729 39.4892 30.5946 39.2404 30.6329C39.1128 30.6536 38.9835 30.6169 38.8559 30.6377C38.7235 30.6584 38.6103 30.7238 38.5034 30.802C38.4141 30.8674 38.3008 30.9567 38.3024 31.0811C38.304 31.1561 38.3965 31.2518 38.3263 31.314C38.2226 31.4018 38.0918 31.1657 38.0089 31.1354C37.7919 31.0556 37.6069 31.4225 37.4362 31.5118C37.2719 31.598 37.0565 31.6075 36.9177 31.7352C36.7694 31.8724 36.7837 32.1037 36.6418 32.244C36.377 32.5057 35.8697 32.0829 35.8314 32.5902C35.8154 32.7912 35.7867 32.8343 35.5937 32.7705C35.3815 32.6987 35.2268 32.7178 35.0529 32.8742C34.8711 33.0401 33.8565 34.0387 34.2123 34.3242C34.4196 34.4917 34.6892 34.2684 34.8471 34.1519C35.0481 34.002 35.2571 34.045 35.4709 33.9493C35.5889 33.8967 35.6256 33.8074 35.707 33.7164C35.8282 33.5808 35.9271 33.5792 36.0978 33.5553C36.3116 33.525 36.6162 33.4516 36.7327 33.2538C36.846 33.0592 36.8779 32.938 37.1363 32.9523C37.224 32.9571 37.4458 32.721 37.4314 32.6173C37.3995 32.386 38.0663 32.4753 38.2131 32.319C38.288 32.2393 38.3375 32.1356 38.4188 32.0622C38.5273 31.9649 38.6501 31.9521 38.7841 31.9122C38.8974 31.8787 38.9835 31.8213 39.084 31.7671C39.1861 31.7112 39.2819 31.7065 39.3887 31.6714C39.6296 31.5932 39.4988 31.4496 39.5435 31.2694C39.5961 31.0556 39.8896 31.1976 40.0396 31.1417C40.1433 31.1035 40.2294 31.0157 40.3235 30.9583C40.4591 30.8769 40.6059 30.8195 40.7431 30.7461C40.9505 30.6345 41.0956 30.4398 41.3014 30.3346C41.4003 30.2835 41.512 30.2708 41.5901 30.183C41.6938 30.0666 41.6938 29.9453 41.8677 29.9086C41.9746 29.8847 42.2553 29.706 42.292 29.6343C42.3303 29.5593 42.3798 29.4827 42.4739 29.4747C42.5903 29.4636 42.6462 29.5705 42.7403 29.6119C42.9524 29.706 43.0179 29.4955 43.0609 29.3344C43.0769 29.2769 43.3305 29.2402 43.4071 29.2721C43.5459 29.3264 43.7867 29.714 44.0643 29.6614C44.1616 29.6422 44.2621 29.5625 44.3674 29.588C44.4775 29.6135 44.5126 29.7204 44.5556 29.8081C44.5987 29.8943 44.6322 29.9693 44.7391 29.9661C44.8348 29.9645 44.9018 29.8576 44.9864 29.9469C45.0597 30.0235 45.0326 30.132 45.1267 30.2117C45.2033 30.2771 45.3086 30.3154 45.3899 30.3744C45.5846 30.5164 45.7313 30.6472 45.9786 30.6823C46.3327 30.7302 46.8432 30.6696 46.9772 31.0923C47.0027 31.1705 47.0027 31.2486 47.0633 31.3092C47.1367 31.3826 47.2723 31.4018 47.3648 31.4416C47.6551 31.5677 47.9152 31.7192 48.2199 31.8197C48.3507 31.8628 48.4783 31.8995 48.582 31.9936C48.6809 32.0829 48.7383 32.2089 48.8165 32.3142C48.9664 32.5136 49.1642 32.7848 49.4035 32.8742C49.6157 32.9539 50.1485 33.3479 50.3909 33.4755C50.4819 33.5234 50.5792 33.5362 50.6637 33.6C50.7531 33.667 50.8073 33.7675 50.8982 33.8345C50.986 33.9015 51.0897 33.9461 51.179 34.0115C51.2683 34.0769 51.364 34.1774 51.4853 34.1663C51.6161 34.1535 51.7596 33.9382 51.79 34.1392C51.8107 34.2732 51.7389 34.4311 51.9399 34.4183C52.1393 34.4056 52.227 34.313 52.1648 34.5794C52.117 34.7852 52.2781 34.6688 52.3722 34.5954C52.4871 34.5061 52.6003 34.404 52.7072 34.3035C52.7933 34.2237 52.8237 34.1567 52.8556 34.045C52.8731 34.0163 52.8907 33.9717 52.9066 33.9206ZM41.5136 29.3264C41.5152 29.328 41.5152 29.328 41.5168 29.3296C41.5152 29.3296 41.5136 29.3296 41.5136 29.3312C41.512 29.328 41.512 29.328 41.5136 29.3264ZM38.5002 30.9104C38.4986 30.912 38.4986 30.912 38.497 30.9136C38.497 30.912 38.4986 30.9104 38.5002 30.9104ZM44.3786 29.3615C44.377 29.3551 44.377 29.3503 44.3754 29.3455C44.3754 29.3439 44.3754 29.3423 44.3754 29.3407C44.3802 29.3407 44.385 29.3423 44.3897 29.3423C44.3865 29.3487 44.3818 29.3551 44.3786 29.3615Z" fill="#191919"/>
  <path d="M59.064 28.1028C59.0561 28.09 59.0433 28.0773 59.0273 28.0645C58.9253 27.9816 58.7147 27.9656 58.5935 27.9177C58.4228 27.8507 58.209 27.7439 58.0192 27.7822C57.8868 27.8093 57.5486 27.7869 57.4257 27.7327C57.3141 27.6833 57.1179 27.6944 57.0078 27.7375C56.8355 27.8045 56.7015 27.8842 56.5085 27.8715C56.3043 27.8571 56.1639 27.6178 55.947 27.6737C55.8752 27.6928 55.8353 27.7375 55.7556 27.7295C55.6582 27.7215 55.6104 27.6402 55.5338 27.5955C55.3456 27.4886 55.3536 27.6705 55.2116 27.7407C55.0616 27.8157 54.7713 27.8476 54.6102 27.8093C54.4459 27.7694 54.3358 27.5716 54.1683 27.5604C53.953 27.5445 53.929 27.8268 53.8078 27.9417C53.618 28.1203 53.5749 27.889 53.4409 27.7917C53.3675 27.7375 52.755 27.5907 52.6529 27.6099C52.4726 27.645 52.4662 27.838 52.2828 27.8635C52.1121 27.8858 51.884 27.8077 51.726 27.7534C51.6 27.7104 51.4277 27.6083 51.2937 27.6705C51.2124 27.7088 51.1964 27.8763 51.1167 27.8827C51.0194 27.8906 50.9444 27.6689 50.8742 27.6147C50.6907 27.4743 50.5153 27.5955 50.394 27.7471C50.3414 27.8141 49.9282 27.846 49.8118 27.7997C49.6985 27.755 49.5055 27.7104 49.3874 27.7072C49.2822 27.704 49.1817 27.7391 49.0764 27.7375C48.9456 27.7359 48.818 27.6944 48.6887 27.6817C48.4718 27.6593 48.2373 27.6561 48.0203 27.6673C47.8321 27.6769 47.6598 27.7885 47.4716 27.771C47.3073 27.755 47.1669 27.637 46.9946 27.6673C46.8207 27.6976 46.7617 27.8667 46.615 27.9289C46.465 27.9911 46.4873 27.8188 46.3916 27.7423C46.1922 27.5812 46.0215 27.7327 45.8349 27.8045C45.6865 27.8619 45.468 27.8842 45.3149 27.8492C45.0772 27.7949 45.2845 27.7056 45.1617 27.578C45.0341 27.4472 44.7422 27.554 44.6034 27.6099C44.463 27.6657 44.3944 27.838 44.2413 27.8492C44.1743 27.8539 44.0706 27.8093 44.0116 27.7822C43.8712 27.7152 43.8712 27.6163 43.7675 27.5253C43.6255 27.3993 43.4947 27.5445 43.332 27.5445C43.257 27.5445 43.1868 27.4966 43.1103 27.5094C42.8726 27.5477 42.8024 27.8252 42.4977 27.6912C42.3828 27.6402 42.3238 27.5094 42.2138 27.4615C42.0925 27.4089 41.9442 27.4854 41.866 27.5796C41.8102 27.6482 41.7767 27.8635 41.6921 27.8938C41.598 27.9289 41.4624 27.7822 41.389 27.7359C41.2821 27.6705 41.1481 27.6019 41.0253 27.5748C40.8945 27.5461 40.7972 27.5604 40.7206 27.6689C40.6648 27.7487 40.6345 27.905 40.5228 27.8204C40.4223 27.7439 40.4191 27.621 40.274 27.5732C40.1543 27.5349 40.0139 27.5493 39.8927 27.5716C39.7779 27.5923 39.6407 27.6848 39.5258 27.6689C39.4269 27.6545 39.4333 27.578 39.3727 27.5205C39.2706 27.4232 39.2642 27.511 39.1908 27.5796C39.076 27.6864 39.009 27.6242 38.859 27.6306C38.7043 27.637 38.5719 27.7263 38.4331 27.7837C38.181 27.889 37.4919 28.0023 37.2494 27.8507C37.1091 27.7614 37.0756 27.6625 36.9065 27.629C36.7533 27.5987 36.7039 27.9768 36.4678 27.7455C36.337 27.6178 36.27 27.6194 36.0849 27.6657C35.8807 27.7168 35.6781 27.7885 35.4724 27.8268C35.2873 27.8619 35.1039 27.8013 34.922 27.8476C34.7705 27.8858 34.6604 27.9784 34.5025 27.8986C34.3717 27.8332 34.3078 27.7343 34.1451 27.7471C34.0734 27.7534 34.0032 27.7917 33.9298 27.7885C33.8341 27.7837 33.791 27.7183 33.7176 27.6721C33.5437 27.562 33.4528 27.6099 33.255 27.629C33.0971 27.6434 32.9758 27.5524 32.8227 27.5508C32.7047 27.5508 32.6472 27.6178 32.5754 27.7008C32.4925 27.7965 32.4287 27.8827 32.2931 27.8986C32.108 27.9209 31.9246 27.7822 31.773 27.6928C31.6167 27.6003 31.4476 27.495 31.2594 27.5014C31.0983 27.5078 31.0249 27.6466 30.8893 27.6641C30.733 27.6848 30.6851 27.4727 30.5256 27.4791C30.1667 27.495 30.0725 27.5843 29.6849 27.4902C29.4903 27.444 29.3866 27.4679 29.334 27.6689C29.3068 27.7742 28.9846 27.4137 28.7804 27.4966C28.731 27.5173 28.7054 27.5716 28.6656 27.6051C28.589 27.6689 28.5029 27.6928 28.4103 27.7279C27.6861 28.0007 27.9493 28.8159 28.5555 28.4761C28.7086 28.3899 28.782 28.3485 28.9639 28.3628C29.133 28.3772 29.2973 28.4186 29.4632 28.4537C29.6642 28.4952 29.8827 28.618 30.0869 28.6133C30.1667 28.6117 30.2751 28.5479 30.3533 28.5718C30.4426 28.5989 30.4315 28.6866 30.4969 28.7361C30.6835 28.8733 31.4763 28.6324 31.6885 28.583C31.7746 28.5638 31.8863 28.516 31.9772 28.5319C32.1064 28.5542 32.4032 28.642 32.4398 28.6021C32.4941 28.5431 32.5499 28.5287 32.6297 28.5319C32.7828 28.5399 32.9312 28.634 33.0716 28.685C33.2327 28.7425 33.3794 28.7441 33.5198 28.6308C33.6618 28.5144 34.3461 28.4091 34.4977 28.5526C34.6556 28.7042 35.6797 28.4793 35.7786 28.5C35.9206 28.5287 36.0674 28.5112 36.2109 28.5335C36.313 28.5495 36.4135 28.5814 36.5172 28.5909C36.6129 28.6005 36.7374 28.567 36.8203 28.6276C36.9703 28.7361 37.2957 28.6484 37.4058 28.6196C37.5047 28.5941 37.6084 28.6085 37.7009 28.5622C37.8349 28.4968 38.666 28.6516 38.9228 28.6627C39.1541 28.6723 39.2594 28.7744 39.4556 28.8605C39.6853 28.961 39.7204 28.7138 39.9118 28.7042C40.0458 28.6978 40.4782 28.6372 40.5946 28.5447C40.9121 28.2926 41.397 28.5909 41.6857 28.7313C41.7894 28.7824 41.8931 28.8159 42.0096 28.784C42.193 28.7361 42.2712 28.6659 42.453 28.6643C42.6636 28.6611 42.7115 28.9403 42.989 28.8095C43.2124 28.7042 43.281 28.4952 43.5617 28.5718C43.6654 28.6005 43.7388 28.6452 43.8504 28.642C43.927 28.6404 44.0052 28.5989 44.0833 28.6069C44.1918 28.6196 44.2205 28.709 44.3099 28.7441C44.4152 28.7855 44.5156 28.7106 44.613 28.6819C44.7422 28.6436 44.8299 28.6292 44.9527 28.6994C45.0229 28.7393 45.0947 28.8685 45.192 28.8398C45.2447 28.8254 45.2415 28.752 45.2782 28.7249C45.3324 28.6819 45.3835 28.7074 45.46 28.7106C45.5669 28.7154 45.6164 28.6787 45.6738 28.7664C45.6977 28.8031 45.8429 28.6452 45.9434 28.5989C46.1316 28.5144 46.4092 28.7329 46.5942 28.7584C46.7298 28.7776 46.8702 28.7409 47.009 28.7361C47.0728 28.7345 47.1382 28.7361 47.202 28.7201C47.2514 28.7074 47.3695 28.6133 47.4221 28.6292C47.4939 28.6531 47.47 28.7122 47.5083 28.76C47.5641 28.8286 47.6279 28.8286 47.7109 28.8382C47.8752 28.8557 47.9709 28.8398 48.0842 28.7185C48.148 28.6484 48.5069 28.5447 48.6186 28.6228C49.196 29.0344 49.6826 28.315 50.1978 28.5303C50.2951 28.5702 50.3478 28.6611 50.4307 28.7185C50.654 28.8717 50.9093 28.7664 51.1549 28.7552C51.2905 28.7489 51.4501 28.7648 51.5793 28.7122C51.6973 28.6643 51.6686 28.6244 51.7117 28.5239C51.7404 28.4601 51.9111 28.6244 51.943 28.6866C52.1599 29.1158 53.4696 28.8653 53.6547 28.8972C53.7424 28.9116 53.862 28.9467 53.9466 28.9004C54.213 28.752 55.5322 29.0344 55.8018 28.7983C55.8975 28.7138 55.9215 28.5112 56.073 28.5C56.215 28.4904 56.2995 28.6882 56.3968 28.76C56.617 28.9243 57.1306 28.8047 57.3843 28.7712C57.5326 28.7505 57.6922 28.5686 57.8437 28.5925C57.9681 28.6117 58.2489 28.6117 58.3621 28.5734C58.4435 28.5447 58.536 28.5845 58.6222 28.5558C58.7083 28.5271 58.7705 28.4521 58.8407 28.4011C58.9237 28.3373 59.1518 28.2272 59.064 28.1028ZM46.4762 28.492C46.465 28.4984 46.4538 28.5048 46.4443 28.5112C46.4379 28.5144 46.4315 28.5176 46.4251 28.5223C46.4251 28.5096 46.4235 28.4952 46.4219 28.4841C46.4411 28.4856 46.4586 28.4888 46.4762 28.492ZM30.2608 27.6912C30.2544 27.704 30.24 27.7199 30.2241 27.7359C30.205 27.7582 30.1842 27.7806 30.1683 27.8077C30.1651 27.8125 30.1635 27.8157 30.1619 27.8204C30.1587 27.8109 30.1555 27.7997 30.1523 27.7885C30.1507 27.7853 30.1507 27.7822 30.1491 27.779C30.1603 27.7694 30.1746 27.7598 30.1858 27.7518C30.2113 27.7343 30.24 27.7136 30.2608 27.6912ZM50.4722 28.7441L50.469 28.7074C50.4786 28.709 50.4881 28.7106 50.5009 28.7122C50.4913 28.7313 50.477 28.7425 50.4722 28.7441Z" fill="#191919"/>
</svg>