<svg xmlns="http://www.w3.org/2000/svg" width="48" height="48" viewBox="0 0 48 48" fill="none">
  <g filter="url(#filter0_d_128_202)">
    <path d="M23.0433 4H22.9567C12.4872 4 4 12.4872 4 22.9567V23.0433C4 33.5128 12.4872 42 22.9567 42H23.0433C33.5128 42 42 33.5128 42 23.0433V22.9567C42 12.4872 33.5128 4 23.0433 4Z" fill="#FAFAFA"/>
  </g>
  <path d="M26.7794 27.75C22.6007 27.75 19.2011 24.3492 19.2 20.1706C19.2011 19.1114 20.0636 18.25 21.1205 18.25C21.2292 18.25 21.3367 18.2591 21.4397 18.2775C21.6662 18.3152 21.8812 18.3918 22.0791 18.5074C22.1077 18.5245 22.1272 18.552 22.1317 18.584L22.5733 21.3671C22.579 21.3991 22.5687 21.4323 22.547 21.4563C22.3033 21.7263 21.9922 21.9207 21.6456 22.018L21.4786 22.0649L21.5415 22.2262C22.1111 23.6766 23.2711 24.8354 24.7226 25.4073L24.8839 25.4714L24.9308 25.3044C25.0281 24.9578 25.2225 24.6466 25.4925 24.403C25.5119 24.3847 25.5382 24.3755 25.5645 24.3755C25.5703 24.3755 25.576 24.3755 25.5829 24.3767L28.3659 24.8182C28.3991 24.8239 28.4266 24.8422 28.4437 24.8708C28.5581 25.0687 28.6348 25.2849 28.6736 25.5114C28.6919 25.6121 28.7 25.7185 28.7 25.8294C28.7 26.8875 27.8386 27.7489 26.7794 27.75Z" fill="#1A1A1A"/>
  <path d="M34.3589 22.0678C34.1274 19.4808 32.9287 17.081 30.9838 15.3111C29.0272 13.5307 26.4888 12.5498 23.8341 12.5498C18.0076 12.5498 13.2669 17.2379 13.2669 22.9998C13.2669 24.9336 13.8063 26.8174 14.8275 28.4584L12.55 33.444L19.842 32.6758C21.11 33.1895 22.4521 33.4498 23.8329 33.4498C24.196 33.4498 24.5686 33.4312 24.9423 33.3929C25.2713 33.358 25.6039 33.3069 25.9306 33.2418C30.8099 32.2667 34.3718 27.9842 34.4 23.0556V22.9998C34.4 22.686 34.3859 22.3722 34.3577 22.0689L34.3589 22.0678ZM20.1229 30.4875L16.0885 30.9128L17.2931 28.2736L17.0521 27.954C17.0345 27.9308 17.0169 27.9075 16.9969 27.8808C15.951 26.4525 15.3987 24.7651 15.3987 23.001C15.3987 18.4012 19.1827 14.6591 23.8341 14.6591C28.1916 14.6591 31.8852 18.0212 32.2413 22.313C32.2601 22.5431 32.2706 22.7743 32.2706 23.0021C32.2706 23.0672 32.2695 23.1311 32.2683 23.1997C32.179 27.0476 29.4608 30.3155 25.6579 31.1476C25.3677 31.2115 25.0703 31.2603 24.7742 31.2917C24.4663 31.3266 24.1502 31.344 23.8364 31.344C22.7188 31.344 21.633 31.1302 20.607 30.7071C20.4931 30.6618 20.3814 30.613 20.2768 30.563L20.124 30.4898L20.1229 30.4875Z" fill="#1A1A1A"/>
  <defs>
    <filter id="filter0_d_128_202" x="0.2" y="0.2" width="47.6" height="47.6" filterUnits="userSpaceOnUse" color-interpolation-filters="sRGB">
      <feFlood flood-opacity="0" result="BackgroundImageFix"/>
      <feColorMatrix in="SourceAlpha" type="matrix" values="0 0 0 0 0 0 0 0 0 0 0 0 0 0 0 0 0 0 127 0" result="hardAlpha"/>
      <feOffset dx="1" dy="1"/>
      <feGaussianBlur stdDeviation="2.4"/>
      <feComposite in2="hardAlpha" operator="out"/>
      <feColorMatrix type="matrix" values="0 0 0 0 0.101961 0 0 0 0 0.101961 0 0 0 0 0.101961 0 0 0 0.12 0"/>
      <feBlend mode="normal" in2="BackgroundImageFix" result="effect1_dropShadow_128_202"/>
      <feBlend mode="normal" in="SourceGraphic" in2="effect1_dropShadow_128_202" result="shape"/>
    </filter>
  </defs>
</svg>