<?xml version="1.0" standalone="no"?>
<!DOCTYPE svg PUBLIC "-//W3C//DTD SVG 20010904//EN"
 "http://www.w3.org/TR/2001/REC-SVG-20010904/DTD/svg10.dtd">
<svg version="1.0" xmlns="http://www.w3.org/2000/svg"
 width="420.000000pt" height="420.000000pt" viewBox="0 0 420.000000 420.000000"
 preserveAspectRatio="xMidYMid meet">
<metadata>
Created by potrace 1.14, written by Peter Selinger 2001-2017
</metadata>
<g transform="translate(0.000000,420.000000) scale(0.100000,-0.100000)"
fill="#000000" stroke="none">
<path d="M1960 4164 c-8 -4 -37 -20 -65 -38 -44 -27 -59 -31 -125 -32 -88 -1
-175 -15 -209 -33 -13 -7 -62 -26 -109 -42 -138 -47 -260 -120 -372 -225 -30
-28 -80 -67 -110 -87 -44 -29 -62 -50 -90 -104 -25 -49 -44 -73 -68 -85 -55
-27 -67 -43 -143 -196 -41 -81 -87 -163 -103 -182 -48 -57 -79 -135 -73 -183
8 -51 -34 -187 -71 -231 -21 -26 -23 -37 -18 -80 3 -28 2 -68 -3 -88 -6 -26
-5 -49 5 -75 7 -21 13 -60 14 -86 0 -27 5 -68 11 -92 8 -32 8 -48 -1 -65 -6
-11 -8 -34 -5 -50 8 -37 82 -121 103 -118 13 2 18 -8 23 -42 6 -47 65 -180
100 -224 13 -17 27 -25 38 -21 11 3 27 -6 45 -24 21 -22 26 -34 21 -54 -7 -26
14 -57 55 -83 8 -5 28 -26 43 -46 15 -20 50 -50 77 -65 37 -20 53 -36 58 -57
6 -22 16 -32 40 -38 18 -5 39 -20 48 -34 10 -14 35 -34 58 -46 23 -11 56 -31
73 -45 18 -13 39 -23 46 -21 7 2 29 -10 48 -25 19 -16 80 -56 136 -88 93 -54
133 -86 186 -148 11 -14 29 -21 51 -21 18 0 45 -9 59 -20 14 -11 32 -20 41
-20 10 0 16 -9 16 -24 0 -19 9 -28 45 -43 25 -10 45 -21 45 -25 0 -12 -5 -10
-56 14 l-46 23 -17 -22 -18 -22 -21 22 c-20 19 -26 20 -64 10 -36 -10 -45 -10
-55 3 -6 9 -14 11 -17 6 -3 -6 -20 -12 -38 -15 -18 -3 -58 -13 -88 -22 -60
-17 -104 -14 -132 12 -16 14 -22 14 -43 3 -19 -10 -27 -10 -39 -1 -11 9 -24
10 -58 0 -62 -17 -161 -28 -173 -19 -5 4 -26 10 -45 13 -19 3 -64 11 -99 17
-59 9 -66 9 -86 -10 -27 -25 -52 -25 -90 0 -32 21 -71 26 -95 10 -9 -5 -19 -5
-27 2 -18 15 -152 17 -164 2 -8 -10 -16 -9 -36 1 -24 13 -31 12 -62 -7 -73
-43 -88 -71 -56 -98 13 -11 23 -10 56 0 34 12 50 12 97 0 32 -7 71 -13 88 -14
17 -1 39 -7 47 -15 14 -11 28 -11 89 3 46 10 97 14 138 11 106 -9 123 -8 168
5 33 10 52 10 80 1 23 -7 57 -8 92 -3 30 4 84 4 120 -1 36 -5 76 -8 90 -8 165
6 224 2 261 -14 29 -14 45 -16 62 -8 41 18 125 43 146 43 35 0 81 -28 81 -50
0 -14 -16 -27 -53 -45 -30 -14 -59 -25 -65 -25 -7 0 -18 -15 -26 -34 -9 -23
-23 -36 -42 -40 -15 -4 -43 -21 -61 -37 -23 -20 -44 -29 -67 -29 -43 0 -89
-35 -81 -61 7 -20 -9 -27 -20 -9 -10 16 -41 11 -60 -10 -9 -10 -33 -24 -51
-30 -24 -8 -40 -23 -54 -50 -18 -35 -24 -39 -62 -42 -36 -3 -43 -7 -48 -28 -5
-19 -12 -24 -31 -22 -45 5 -68 -8 -119 -70 -57 -71 -68 -118 -27 -118 12 0 32
6 43 14 11 8 38 19 61 25 22 6 43 18 46 25 3 8 31 21 61 30 36 11 61 25 72 41
8 13 29 28 46 34 16 6 32 20 35 31 4 13 17 22 42 26 20 4 47 17 61 29 14 13
52 34 85 47 45 18 61 30 65 48 4 18 14 26 35 28 16 2 41 12 56 23 15 10 30 19
34 19 7 0 82 50 132 90 94 73 91 72 115 59 18 -10 24 -8 39 10 22 27 43 27 81
0 21 -15 38 -20 59 -15 23 4 32 1 45 -20 11 -16 23 -23 35 -19 11 4 19 0 23
-12 10 -30 91 -74 152 -82 55 -8 84 -27 84 -57 0 -7 40 -29 90 -50 74 -31 98
-47 134 -89 26 -31 76 -70 127 -100 46 -27 103 -64 127 -82 32 -24 50 -31 68
-27 20 5 24 2 24 -15 0 -16 6 -21 26 -21 19 0 25 -4 20 -15 -9 -26 14 -17 50
19 42 42 45 73 7 82 -16 3 -36 8 -45 11 -10 2 -41 31 -69 63 -40 47 -59 60
-89 65 -21 4 -46 15 -56 26 -9 10 -22 19 -29 19 -6 0 -21 12 -34 26 -18 20
-28 24 -51 19 -26 -6 -32 -2 -54 33 -21 34 -30 40 -57 39 -28 -2 -38 5 -75 53
-33 44 -48 55 -70 55 -21 0 -32 7 -42 28 -8 16 -21 27 -33 27 -11 0 -31 11
-45 25 -32 32 -50 41 -104 49 -81 13 -98 51 -22 52 26 0 56 5 67 11 13 8 29 7
58 -3 27 -10 50 -11 78 -5 29 7 47 5 66 -4 22 -12 31 -12 55 1 21 11 44 13 83
9 38 -5 68 -2 104 10 50 16 52 16 86 -5 31 -19 44 -21 93 -15 31 4 63 12 70
17 9 8 19 5 38 -13 26 -24 26 -24 232 -21 206 3 207 4 231 28 23 25 23 25 45
6 32 -28 51 -32 104 -21 26 6 78 15 117 20 47 7 77 17 92 31 13 12 23 25 23
29 0 4 -22 14 -49 23 -42 14 -135 20 -246 15 -35 -1 -122 15 -132 24 -3 4 -14
0 -23 -8 -24 -22 -81 -21 -114 0 l-28 19 -27 -32 c-26 -31 -26 -31 -49 -12
-33 27 -99 36 -121 16 -22 -20 -37 -20 -92 -1 -40 15 -45 14 -56 -2 -12 -16
-14 -15 -33 5 -24 26 -30 27 -54 9 -14 -10 -65 -13 -223 -10 -171 2 -208 0
-228 -13 -21 -14 -24 -14 -33 2 -7 13 -17 15 -43 10 -78 -16 -99 -18 -99 -9 0
15 55 42 107 53 32 7 66 25 97 50 37 31 57 40 86 40 29 0 52 10 100 45 34 25
89 60 123 78 41 21 68 43 82 66 36 62 98 117 147 129 25 6 51 18 58 27 7 8 23
15 36 15 28 0 149 105 179 155 11 19 42 46 70 62 39 22 56 39 75 79 14 28 30
49 36 47 6 -2 22 13 36 34 14 21 53 68 86 106 57 64 59 69 55 111 -5 40 -3 45
22 57 43 21 67 61 71 116 1 27 8 69 13 94 17 74 13 160 -9 189 -20 27 -22 25
-34 -33 -4 -17 -16 -31 -30 -37 -32 -12 -40 -27 -21 -37 26 -15 -3 -153 -51
-239 -47 -84 -115 -173 -154 -202 -16 -12 -47 -49 -70 -81 -30 -45 -47 -60
-67 -63 -17 -2 -32 -12 -40 -28 -7 -14 -23 -33 -35 -43 -13 -10 -80 -74 -149
-143 -112 -111 -130 -125 -170 -132 -32 -6 -45 -13 -47 -27 -6 -28 -21 -44
-57 -59 -18 -8 -41 -23 -51 -34 -10 -11 -35 -23 -54 -27 -48 -9 -98 -45 -152
-108 -36 -41 -66 -63 -139 -99 -52 -25 -116 -49 -144 -53 -60 -8 -118 -39
-136 -71 -14 -28 -22 -30 -38 -10 -8 10 -23 13 -47 9 -40 -7 -108 26 -244 117
-47 32 -98 64 -115 73 -16 8 -41 27 -54 41 -14 14 -31 26 -39 26 -9 0 -48 18
-88 40 -40 22 -82 40 -94 40 -28 0 -60 35 -60 66 0 38 -59 94 -100 94 -20 0
-45 10 -66 27 -54 45 -134 123 -134 133 0 20 -56 73 -101 95 -34 18 -56 38
-75 70 -20 35 -39 52 -80 71 -86 41 -172 168 -204 302 -11 44 -33 102 -51 131
-23 37 -32 62 -31 89 1 20 2 73 2 117 0 68 -3 82 -19 93 -16 11 -18 18 -10 40
5 14 7 32 5 39 -3 8 3 46 14 86 11 39 20 88 20 109 0 24 8 46 25 66 17 21 25
42 25 69 0 56 18 103 53 140 23 25 28 37 23 58 -5 21 0 34 24 61 16 19 30 43
30 53 0 10 7 24 15 31 8 7 15 20 15 30 0 24 77 116 116 139 20 12 42 39 56 68
15 31 41 61 72 85 27 20 55 50 62 67 14 33 23 38 41 20 15 -15 127 73 144 113
16 39 72 75 129 84 52 8 246 81 300 113 8 5 54 21 103 37 78 26 89 27 110 14
17 -11 68 -14 242 -15 200 -1 225 -3 270 -22 28 -12 104 -34 170 -49 66 -15
133 -33 149 -41 31 -16 145 -90 187 -122 16 -13 34 -18 48 -14 12 3 29 -1 39
-10 9 -8 28 -18 42 -22 66 -20 190 -123 190 -158 0 -13 13 -36 29 -51 16 -15
36 -45 46 -66 14 -30 29 -44 70 -64 74 -35 97 -68 89 -123 -6 -39 -2 -50 29
-97 44 -66 92 -161 101 -201 4 -16 21 -51 37 -77 26 -41 29 -52 23 -95 -6 -46
-4 -51 21 -67 25 -16 27 -22 21 -62 -4 -32 0 -56 13 -87 10 -23 23 -55 27 -71
17 -57 31 -39 37 47 10 146 -1 233 -39 306 -37 70 -40 82 -22 110 9 15 8 26
-4 52 -8 19 -21 48 -27 66 -7 17 -22 40 -33 50 -25 23 -92 154 -108 212 -7 27
-26 58 -51 82 -22 22 -52 64 -65 94 -17 36 -32 55 -43 55 -9 0 -33 16 -52 36
-18 19 -62 56 -96 80 -34 25 -76 65 -93 89 -52 76 -69 87 -120 82 -54 -6 -109
18 -142 64 -15 19 -60 49 -123 81 -129 65 -154 72 -176 52 -17 -15 -22 -15
-62 5 -24 11 -51 21 -59 21 -9 0 -69 13 -132 30 -87 22 -122 27 -141 20 -14
-5 -25 -14 -25 -20 0 -15 -27 -12 -55 6 -25 16 -129 28 -155 18z"/>
<path d="M2065 3690 c-9 -15 -19 -371 -12 -402 8 -32 41 -41 67 -20 20 16 20
26 18 222 l-3 205 -32 3 c-17 2 -34 -2 -38 -8z"/>
<path d="M1372 3538 c-21 -21 -13 -50 67 -228 64 -144 81 -176 100 -178 25 -4
51 14 51 34 0 16 -147 353 -163 372 -12 15 -39 16 -55 0z"/>
<path d="M2687 3365 c-48 -96 -87 -184 -87 -194 0 -26 26 -44 53 -37 19 4 41
42 110 187 93 194 98 219 39 219 -25 0 -33 -12 -115 -175z"/>
<path d="M1950 3089 c-23 -12 -68 -21 -135 -25 -55 -4 -106 -11 -112 -17 -7
-5 -22 -7 -34 -4 -23 6 -119 -46 -173 -94 -19 -16 -38 -29 -43 -29 -5 0 -19
-11 -30 -24 -12 -13 -38 -29 -59 -36 -54 -17 -74 -38 -74 -75 0 -26 -8 -39
-42 -67 -24 -18 -55 -41 -69 -50 -21 -13 -28 -27 -32 -60 -2 -24 -10 -57 -18
-75 -12 -30 -11 -35 37 -115 28 -46 54 -91 57 -101 4 -9 15 -20 24 -24 10 -3
26 -13 36 -21 9 -9 27 -16 40 -17 15 -1 23 -9 25 -26 6 -56 13 -69 33 -69 12
0 42 -15 68 -33 84 -61 159 -97 199 -97 52 0 99 -17 143 -52 30 -22 47 -28 89
-28 32 0 57 -6 66 -15 15 -14 52 -12 79 4 6 3 57 7 115 7 124 2 229 22 295 58
17 9 45 16 62 16 22 0 49 13 85 40 38 28 59 38 75 34 18 -5 33 4 71 42 26 27
69 63 95 81 36 25 54 47 78 98 26 55 36 67 61 72 31 6 74 55 98 112 11 27 9
35 -11 68 -13 21 -31 44 -41 51 -10 8 -18 19 -17 25 4 30 -5 44 -63 102 -35
34 -72 77 -83 96 -16 27 -28 35 -64 41 -58 10 -131 46 -131 65 0 13 -66 83
-77 83 -2 0 -17 -7 -34 -15 -33 -17 -49 -13 -49 13 0 9 -4 23 -9 30 -10 16
-145 45 -181 38 -14 -2 -54 -1 -89 3 -56 7 -69 5 -97 -13 -18 -12 -32 -25 -31
-29 5 -18 112 -48 154 -44 36 4 45 1 58 -19 13 -21 24 -24 71 -24 49 0 59 -4
84 -30 15 -16 35 -30 43 -30 9 0 22 -9 31 -21 8 -12 22 -19 33 -17 32 8 93
-30 109 -68 14 -34 16 -35 59 -28 42 6 45 5 45 -16 0 -35 60 -120 84 -120 14
0 29 -14 44 -40 28 -50 29 -86 1 -93 -18 -5 -20 -12 -17 -58 3 -50 1 -53 -20
-54 -12 0 -41 -18 -65 -41 -23 -23 -77 -66 -119 -97 -42 -31 -80 -61 -83 -67
-3 -5 -15 -10 -27 -10 -11 0 -33 -14 -50 -32 -24 -25 -37 -32 -62 -30 -21 2
-41 -4 -59 -18 -15 -12 -43 -24 -62 -27 -55 -9 -46 24 18 67 63 43 137 138
168 217 20 49 24 75 23 173 0 96 -4 124 -22 169 -80 192 -258 311 -466 311
l-51 0 30 25 30 25 -30 25 c-34 29 -38 29 -85 4z m-63 -106 c2 -6 -3 -13 -12
-16 -10 -5 -15 0 -15 14 0 21 21 22 27 2z m-125 -45 c6 6 25 12 41 12 28 0 28
-1 -20 -38 -154 -123 -221 -300 -182 -484 26 -120 126 -261 223 -313 40 -22
43 -27 21 -45 -12 -10 -21 -6 -52 19 -37 31 -76 40 -88 21 -9 -14 -25 -2 -25
18 0 11 -20 25 -60 42 -33 14 -60 31 -60 38 0 6 -8 12 -17 12 -10 0 -33 9 -51
20 -18 11 -39 20 -47 20 -17 0 -104 64 -123 91 -7 10 -12 26 -10 36 2 10 -10
25 -28 38 -17 11 -29 26 -26 34 2 7 -10 28 -28 46 l-33 34 22 27 c11 15 21 33
21 40 0 7 13 20 30 29 16 8 34 24 40 35 6 11 17 20 24 20 8 0 32 15 54 33 22
17 47 37 57 42 9 6 20 26 24 45 7 35 8 35 68 41 65 6 113 29 113 55 0 12 7 14
36 8 31 -6 36 -4 41 16 4 16 8 18 14 8 6 -10 11 -10 21 0z m438 -888 c-15 -10
-60 -14 -60 -5 0 6 64 23 70 18 2 -2 -2 -8 -10 -13z"/>
<path d="M1523 1902 c-7 -5 -36 -59 -64 -122 -42 -95 -49 -117 -40 -137 11
-23 35 -29 58 -15 13 8 113 223 113 241 0 14 -29 41 -43 41 -7 0 -18 -4 -24
-8z"/>
<path d="M2628 1899 c-29 -16 -21 -52 34 -164 57 -114 77 -131 111 -96 l21 21
-54 111 c-69 141 -76 149 -112 128z"/>
<path d="M2078 1799 c-16 -9 -18 -27 -18 -135 0 -130 8 -164 39 -164 41 0 51
30 51 151 0 143 -18 180 -72 148z"/>
</g>
</svg>
